<svg width="861" height="322" viewBox="0 0 861 322" fill="none" xmlns="http://www.w3.org/2000/svg">
<path opacity="0.2" d="M857.963 6.31089C854.063 10.8016 841.597 8.10209 834.615 9.99029C839.252 11.0884 841.848 13.0548 840.177 16.8077C832.132 15.5896 833.101 14.5622 831.023 17.5952C826.793 17.6638 833.074 14.0326 829.327 12.9761C830.326 13.2584 827.775 16.2835 826.916 16.2632C824.293 16.1985 820.166 12.7747 814.606 12.2728C803.333 11.2452 792.069 18.3996 782.34 15.8948C786.649 18.1273 789.504 21.2725 790.366 24.7359C784.401 23.6289 781.859 25.3768 776.869 25.0647C773.484 22.5869 771.224 19.5833 770.327 16.3691C766.576 16.4148 763.913 17.3475 760.92 18.0122C769.154 19.8594 766.036 29.4791 776.631 25.9294C774.752 28.2439 778.043 28.3787 776.872 30.388C776.433 31.4286 775.891 32.3907 773.514 31.8122C772.732 33.3969 774.623 33.8777 774.033 35.4159C775.885 41.9671 775.332 47.3534 776.753 52.5787C773.896 52.6495 773.451 54.7448 769.06 53.5188C760.902 50.5498 765.862 35.7808 751.868 40.1291C755.695 42.9225 748.112 44.5723 746.617 48.4409C744.665 53.4437 746.955 58.6296 746.938 63.5575C741.948 63.1016 747.543 58.2179 742.558 57.7634C742.527 65.6805 749.363 74.7443 746.537 81.2693C740.775 74.7919 731.168 69.9152 729.584 61.6817C724.847 59.7582 721.414 61.7124 718.48 58.7087C719.535 63.8619 723.062 67.9766 725.041 72.742C724.815 73.2526 724.553 73.733 723.366 73.4461C716.427 70.2578 718.927 63.0993 705.482 62.6358C701.053 73.1452 715.948 79.5928 710.426 88.0329C697.689 79.9011 696.898 66.753 682.589 59.2775C687.366 71.2859 698.359 84.668 699.38 95.7176C680.526 88.3619 686.142 70.7415 666.483 63.7414C674.146 81.6442 691.58 95.4257 697.308 114.139C686.322 109.331 683.884 100.945 674.084 95.6441C672.419 98.891 681.492 99.9458 676.765 102.153C673.147 100.615 672.688 97.7616 666.159 97.4473C656.425 101.967 670.285 108.344 667.305 111.904C669.128 111.302 672.834 112.957 672.013 114.067C663.138 133.859 698.402 152.067 703.376 173.377C700.435 173.923 699.241 170.276 697.576 172.75C698.45 172.98 699.157 173.405 699.56 173.943C699.964 174.481 700.035 175.094 699.76 175.663L693.986 175.039C697.278 181.03 704.527 185.361 708.993 190.859C708.759 191.382 708.497 191.868 707.311 191.565C700.179 186.415 692.049 181.688 686.274 175.977C686.048 183.452 693.809 191.627 692.405 197.056C683.98 189.9 680.642 180.613 670.359 174.258C671.164 177.281 673.112 182.843 670.415 184.92C667.547 184.345 668.22 182.282 665.351 181.711C665.46 179.123 661.395 178.277 660.975 175.905C661.21 175.047 660.085 174.763 659.982 174.026C654.475 172.193 654.927 175.398 650.856 174.811C650.635 171.347 647.411 169.135 645.751 166.271C642.605 166.47 636.53 164.187 635.378 166.033L635.14 166.9L640.939 167.527C639.33 170.493 640.948 172.107 643.854 173.178C643.795 173.706 643.783 174.212 645.084 174.194C644.001 176.42 646.305 177.25 650.147 177.417C650.064 177.948 650.077 178.461 651.354 178.419C653.304 183.204 657.783 186.913 661.293 191.042C661.833 193.616 658.638 193.056 658.672 195.196C665.745 196.334 660.196 192.701 663.956 192.219L665.393 192.374C667.5 194.796 668.049 197.88 672.412 199.351C671.234 199.413 669.571 199.06 669.297 199.901C662.451 198.951 659.733 196.283 652.66 195.428C655.916 190.741 648.617 190.01 646.839 189.48C649.046 185.753 641.609 186.087 641.025 183.522C625.671 175.469 622.207 162.425 607.389 154.135C607.055 153.878 606.814 153.58 606.679 153.26C606.545 152.94 606.522 152.606 606.612 152.279C606.702 151.953 606.902 151.643 607.199 151.37C607.496 151.096 607.883 150.866 608.334 150.694C603.21 148.86 604.933 152.77 600.647 151.635C600.646 148.587 599.218 146.134 598.437 143.407C588.707 140.303 589.085 133.209 579.316 126.244C578.343 127.676 580.878 128.69 578.604 128.836C578.056 127.545 573.09 128.114 573.299 126.492C573.284 125.21 571.321 124.781 571.114 123.58C568.434 123.105 567.674 124.212 565.095 123.834C563.918 125.843 567.231 125.984 565.347 128.292L569.691 128.761C574.772 135.279 583.162 140.401 585.204 148.194C584.351 149.142 583.104 149.926 581.596 150.464C583.384 147.708 578.992 148.76 577.496 149.133C572.603 142.069 565.954 140.331 557.677 134.571C557.916 133.624 558.678 132.759 559.829 132.128C558.47 130.675 559.639 128.14 555 128.062C551.278 126.831 554.774 122.56 547.51 122.808C549.413 118.318 544.244 119.678 547.96 115.764L542.151 115.136C543.24 118.597 539.66 120.605 541.004 124.774C543.773 125.338 544.181 123.912 545.814 123.522C545.007 126.136 545.902 128.052 548.735 129.159C554.642 137.891 560.038 138.353 559.887 148.118C563.89 148.418 567.399 148.772 563.758 150.308C557.506 150.39 558.683 147.364 556.024 145.928C555.539 146.919 555.599 148.413 553.877 148.351C551.584 144.74 550.408 140.658 546.368 137.781L546.841 136.059C545.036 135.969 543.33 135.939 543.47 137.468C538.352 138.193 539.236 143.577 541.102 146.088C544.047 149.357 544.297 149.22 543.54 153.458L543.305 154.316C539.155 156.369 537.166 153.127 535.103 151.658C537.168 153.119 530.559 144.966 525.896 141.785C524.664 138.992 521.51 137.01 517.182 135.506L516.468 138.107C512.071 135.12 511.627 130.477 505.816 128.077C505.887 127.033 506.745 125.648 505.113 125.324C504.528 128.302 500.075 124.58 497.138 127.139C497.193 126.094 495.119 125.949 493.036 125.808L493.513 124.072C487.048 121.196 485.579 116.216 481.902 112.171C482.48 118.275 487.011 122.737 487.752 128.787C485.973 128.7 484.265 128.669 484.402 130.196C488.515 129.999 486.848 132.231 489.707 132.54C492.579 133.115 493.09 134.693 494.768 135.764C496.705 144.227 498.894 147.976 505.971 154.732C504.3 157.211 503.092 153.565 500.172 154.105C494.715 153.325 495.66 149.884 489.545 149.398C487.673 149.253 487.242 150.296 484.974 149.787C480.121 149.004 481.28 141.732 476.273 143.532C477.351 143.835 477.743 144.434 477.242 145.41C477.002 146.981 475.246 147.273 472.432 146.662C470.254 146.05 471.942 143.823 467.125 144.317C465.661 144.159 465.207 144.824 463.99 144.867C460.436 143.811 459.723 141.568 461.313 138.354C460.235 138.051 458.457 138.036 458.65 137.183C455.066 137.161 455.95 135.28 451.665 135.54C454.006 139.386 445.368 141.111 448.824 145.884C447.647 145.967 445.963 145.607 445.692 146.433C442.346 146.571 444.072 144.577 441.824 144.244C437.757 144.853 434.175 146.357 431.729 148.484L436.066 148.953C437.141 149.258 437.555 149.86 437.03 150.833C430.983 151.279 427.689 146.683 424.256 148.565C426.171 148.787 425.173 150.218 426.682 150.598C420.506 156.43 438.22 162.784 431.33 166.198C443.442 168.232 441.89 175.995 444.895 181.857C444.07 183.995 446.381 184.81 448.284 185.783C448.047 186.645 449.167 186.939 449.249 187.663C448.356 187.625 447.508 187.602 447.575 188.366C442.209 185.142 436.509 178.457 437.868 174.894C434.546 174.245 432.801 172.936 427.99 172.941C429.112 167.291 421.549 165.427 418.07 165.651C421.781 161.995 414.745 155.398 405.515 157.187C405.719 160.508 409.047 164.343 401.918 164.795C388.755 158.617 391.661 145.695 375.777 140.665C370.435 150.096 389.557 159.767 386.022 168.408C381.863 164.033 377.006 159.934 371.527 156.174C371.725 159.279 365.628 158.737 363.835 157.13C361.852 162.783 368.069 165.011 366.058 170.679C363.42 169.569 359.952 167.126 356.18 168.729C359.517 176.438 350.198 184.877 355.799 191.776C354.048 192.765 353.565 194.833 350.512 194.752C321.747 165.705 297.243 133.733 274.439 103.078C264.147 89.2367 256.834 73.6421 243.643 63.3505C234.923 64.1354 227.979 66.4262 218.856 66.8796C212.848 80.5545 220.461 84.1111 229.105 94.6221C262.186 134.859 289.429 178.445 317.378 217.809C418.353 360.048 528.763 496.001 662.363 620.875C625.685 596.072 590.831 570.508 558.374 543.944C549.476 536.241 542.076 527.919 530.341 521.387C529.479 521.236 528.668 521.06 529.113 520.366C524.975 515.98 520.113 511.879 514.607 508.131C494.449 490.158 472.192 473.032 453.414 454.468C449.472 452.56 447.613 449.774 444.95 447.352L445.191 446.474C442.101 444.786 439.618 442.706 437.907 440.371C434.806 439.379 434.324 437.308 433.335 435.429C411.917 414.762 391.074 394.32 371.59 372.829C351.744 350.949 338.916 327.317 321.873 304.418C287.408 258.394 258.676 210.765 235.934 161.959C236.021 159.915 240.364 161.447 240.982 159.827C226.183 158.667 233.909 148.049 220.908 146.12C213.158 152.605 228.363 155.586 225.32 162.582C219.736 159.624 222.256 164.287 217.395 164.385C210.268 155.926 206.223 146.192 192.712 140.413C193.484 135.25 186.729 133.258 183.741 129.681C182.238 127.25 184.929 123.068 176.486 123.563C173.79 131.427 183.599 137.324 173.937 143.704L172.482 143.547C172.167 144.693 169.716 144.062 169.123 144.971C172.929 146.269 168.153 148.966 166.476 149.116C160.052 150.009 157.158 142.863 155.833 139.087C150.834 137.824 148.283 140.282 145.696 137.992C146.483 143.263 151.053 146.941 150.578 152.735C143.323 152.575 146.159 148.185 139.495 149.764C140.152 153.304 141.614 156.504 139.294 161.277C134.183 160.888 135.34 157.845 131.571 156.883C131.273 152.635 124.073 150.697 120.919 146.853C118.202 143.524 123.17 136.938 112.931 138.016C110.055 144.565 117.675 146.693 118.055 151.881C116.414 151.438 113.545 147.82 111.056 150.236C114.409 155.685 117.736 161.174 121.501 166.462C126.227 168.485 116.304 167.688 120.554 169.908C121.245 170.516 122.809 174.366 119.368 174.226C117.192 172.844 114.164 171.82 114.757 169.282C111.202 168.765 115.142 166.313 115.703 165.836C107.98 164.476 105.815 158.52 109.874 154.539C106.296 154.27 102.866 153.929 101.434 152.744C100.468 156.724 104.097 158.752 101.488 163.399L97.1671 162.933C93.7592 171.508 94.3886 180.518 98.9794 188.873C105.965 189.005 102.154 193.649 104.556 195.695C104.792 194.838 107.396 194.887 107.435 196.007C109.926 198.53 109.637 202.22 112.537 204.554C114.345 205.4 119.047 208.85 114.013 210.044C116.288 216.466 126.059 226.341 129.553 234.799C129.056 235.443 128.068 235.67 126.44 235.351C124.793 238.832 131.79 238.69 128.883 242.716C131.535 243.213 132.315 242.087 134.893 242.482C142.646 248.898 148.78 255.987 147.761 266.078C152.572 265.608 151.711 266.085 154.762 267.716C153.784 268.151 150.239 271.443 153.578 272.026C155.395 270.578 158.068 275.165 159.868 276.264C154.098 282.017 170.643 283.557 164.994 290.126L167.874 290.437C167.655 291.545 169.4 291.835 168.628 293.18C167.447 293.252 165.762 292.897 165.489 293.738C166.561 294.043 166.982 294.636 166.455 295.614C164.635 295.36 164.751 294.3 162.352 294.288C156.849 294.302 160.864 290.32 157.758 289.344C157.996 288.48 159.212 288.439 159.672 287.782C157.552 284.861 156.193 281.603 153.128 279.076C152.582 282.625 152.071 280.968 148.315 280.335C148.372 284.19 143.591 285.33 147.886 287.388C150.563 288.044 148.094 290.859 152.95 290.596C153.078 291.308 152.521 292.312 153.912 292.487C153.868 293.514 152.989 294.91 154.668 295.229L154.431 296.091C150.15 296.354 151.012 294.469 147.428 294.447C144.335 297.266 152.191 295.5 151.058 297.498C150.673 298.589 148.871 298.499 148.911 299.926C144.013 297.902 142.55 294.459 140.902 291.082C140.398 289.256 137.051 288.63 136.052 286.999C135.566 284.634 134.366 278.606 128.799 280.881C129.431 283.668 124.139 286.253 131.026 289.117C132.101 289.433 132.514 290.034 131.992 291.009C135.781 292.057 135.382 289.604 138.265 289.9L137.789 291.635C139.819 304.251 148.742 313.991 153.84 325.324C153.6 326.198 154.728 326.478 154.833 327.203C150.889 326.704 151.516 328.326 149.035 326.576C141.224 320.372 140.844 310.639 130.619 306.83C133.272 303.437 128.519 303.144 129.401 300.491L126.504 300.178C126.053 298.839 129.4 295.9 126.224 295.705C126.792 292.002 119.986 295.61 119.483 293.201C120.992 287.859 115.225 279.3 108.049 275.099L108.286 274.234C104.246 274.411 105.98 272.156 104.658 271.183C101.304 268.453 106.88 269.494 107.307 267.029C103.468 266.614 98.9559 266.459 97.4032 265.07C91.9179 257.994 91.1389 254.033 81.2005 248.222C81.1443 253.589 84.9511 257.331 86.3236 262.102C86.9424 264.376 90.0883 265.601 92.3565 267.185C85.8194 268.001 94.5929 269.213 89.9901 270.486C88.8119 275.563 100.628 275.228 94.1254 282.471C99.465 281.494 99.4315 283.336 100.637 285.836C94.6869 282.941 96.1746 287.39 96.5684 289.843C79.1932 278.057 76.7385 260.02 65.5252 245.64C64.1042 243.7 61.7349 242.155 61.1696 239.851L62.6067 240.006C59.9935 236.848 58.7337 243.735 53.221 241.652C53.9837 240.052 52.1164 239.572 52.7272 238.056C53.3687 238.613 54.3329 238.991 55.4129 239.107C56.493 239.224 57.603 239.071 58.5049 238.68L59.9284 233.497C58.4864 233.341 58.008 234.004 56.7929 234.047C51.4647 235.3 55.3041 235.715 55.6062 238.367C54.0965 236.981 49.1131 236.443 46.9283 237.429L46.6928 238.287C50.1629 239.418 54.262 244.207 50.5973 245.817C46.4633 243.973 46.4006 240.449 45.4891 237.276L42.5905 236.963C43.3663 235.359 41.4867 234.88 42.1012 233.344C38.6711 230.579 41.5508 231.078 43.5183 228.185C42.1785 225.174 33.3596 225.311 36.7201 220.343C33.8644 220.41 32.5788 221.815 29.0329 221.283C27.0491 220.837 27.9016 219.215 26.8616 218.389C26.2263 214.137 21.3506 219.845 18.4208 216.594C17.1525 213.549 18.5009 209.421 16.6918 206.623C16.5965 204.628 9.01893 205.785 8.4863 203.966C4.85665 210.317 9.88243 213.038 9.01235 218.237C4.34138 221.259 2.55484 220.326 -2.52001 222.305C-5.60148 221.321 -1.75749 217.424 -2.09354 215.261C-2.11821 214.259 -3.31054 213.749 -4.49592 213.215C-5.01598 214.571 -5.13145 216.23 -8.11169 215.5C-6.47937 212.785 -7.98792 211.389 -7.88997 209.305C-7.16762 206.2 -8.77443 204.081 -8.63285 201.229C-22.202 199.796 -19.9423 191.727 -25.5918 186.975C-31.8684 194.959 -19.9925 201.922 -21.6127 210.481C-24.6627 211.098 -26.2121 212.993 -28.5995 214.174C-25.0483 221.489 -22.113 228.915 -19.8059 236.423C-24.4715 236.052 -24.9785 239.148 -29.4316 238.943C-30.729 232.873 -37.6555 229.165 -36.7494 222.175C-40.4251 221.426 -44.5705 220.863 -46.3871 219.356L-47.8518 219.198C-47.2531 223.9 -38.0156 235.607 -51.1237 236.601C-51.0941 222.338 -64.5132 213.739 -71.5261 202.431C-82.3446 208.427 -63.741 216.858 -70.2102 224.779C-71.8119 226.694 -74.9594 225.719 -75.4924 227.751C-76.8877 232.904 -75.4221 237.8 -66.7794 239.348C-64.4679 239.523 -65.0513 237.266 -61.9662 238.09C-59.3663 239.808 -59.7937 242.774 -61.2006 246.169C-63.9032 248.895 -59.6152 252.527 -63.0943 253.064C-68.1372 255.079 -67.5746 250.462 -74.4342 250.958C-80.7468 255.637 -74.2348 260.86 -72.19 264.508C-74.1752 267.374 -70.95 268.059 -72.4071 270.704C24.3459 424.403 129.731 574.489 278.501 706.37C288.003 712.806 294.285 720.602 302.454 727.604C314.922 737.119 326.431 747.036 337.507 757.144C338.389 759.576 342.471 760.656 343.345 763.088C346.897 764.402 347.264 767.045 350.841 768.349C352.126 770.338 354.203 772.088 356.874 773.431C361.971 776.838 366.435 780.597 370.181 784.636C371.467 786.633 373.55 788.389 376.23 789.736C381.318 793.143 385.777 796.899 389.523 800.933C407.185 817.944 429.581 832.96 445.911 850.536C451.404 854.284 456.266 858.378 460.419 862.752C478.098 875.174 492.963 888.763 512.625 900.362C517.07 901.263 516.61 898.06 521.775 899.582C528.883 910.533 553.865 913.798 570.796 921.73C575.356 923.894 576.995 927.386 580.928 928.159C585.699 929.095 590.312 927.297 596.11 927.14C612.941 926.69 632.666 928.516 644.501 924.372C648.019 923.158 648.546 919.189 653.164 919.98C662.8 927.879 655.456 945.8 675.454 947.251C680.467 947.62 685.816 944.258 691.358 943.65C700.724 942.601 712.928 945.866 712.518 937.043C712.903 934.093 709.008 932.929 708.395 930.395C725.985 932.821 727.022 921.303 737.224 917.526L750.244 918.933C759.18 933.148 799.7 929.812 792.835 910.226C799.625 909.908 807.21 910.282 811.395 907.782C817.809 897.964 802.442 897.298 799.51 891.401C799.588 888.617 802.265 888.081 805.03 887.566C811.112 889.136 816.557 891.541 820.966 894.603C846.128 901.027 850.029 885.801 845.455 875.948C865 874.162 854.465 853.555 873.027 851.402C875.043 853.617 871.955 857.972 873.562 860.339C882.934 863.821 903.332 868.135 911.394 863.543C920.836 870.765 934.69 876.151 941.365 884.539C927.652 900.215 969.687 898.392 986.479 899.174C984.412 906.148 990.31 909.776 994.263 914.229C987.373 914.516 980.195 917.516 973.301 914.624C953.073 915.721 945.517 936.43 971.006 939.241C971.212 940.933 967.627 944.22 972.723 943.857C987.032 936.244 1020.03 939.357 1016.47 920.171C1013.53 916.57 1004.59 915.478 1000.76 912.254C1005.94 909.953 1006.53 902.811 1006.01 898.624C1010.52 895.088 1016.74 893.321 1019.23 888.502C1024.26 878.613 1015.37 871.328 1006.09 865.778C1007.45 862.675 1012.77 862.91 1012.57 858.489C1012.2 856.606 1010.28 855.383 1009.41 853.702C997.472 850.73 995.35 856.032 987.742 856.689C963.778 842.842 937.163 830.101 927.545 810.242C895.104 795.346 881.543 772.565 856.449 754.608C855.497 752.212 854.086 749.994 855.682 746.536C853.786 742.492 846.426 740.751 838.288 739.337C836.592 737.001 834.128 734.917 831.058 733.219C831.293 732.364 830.152 732.064 830.065 731.343C826.322 727.303 821.859 723.544 816.762 720.136C810.459 716.422 807.114 711.47 800.808 707.765C784.875 693.064 769.317 678.251 753.374 663.566C753.259 660.562 757.451 655.767 754.542 653.926C752.49 649.579 745.48 648.14 736.693 648.453C645.051 565.061 556.599 480.363 483.224 389.32C527.777 423.269 566.076 459.855 609.223 494.394C616.61 501.494 624.697 508.299 633.437 514.767C640.253 522.329 648.271 529.441 657.367 535.992C657.793 538.105 661.537 538.81 661.986 540.927C666.127 545.312 670.99 549.412 676.496 553.16C748.568 615.859 824.31 678.647 906.229 736.006C916.527 743.235 928.855 750.031 935.719 758.735C919.792 759.658 915.295 773.602 930.983 775.981C941.234 777.522 942.075 772.659 951.694 771.111C959.022 776.159 971.493 779.078 974.403 785.992C967.274 788.823 959.788 791.37 960.007 800.414C966.197 803.674 967.74 808.865 979.802 809.66C986.554 807.905 987.498 801.265 996.876 801.744C1005.22 808.149 1016.25 813.455 1022.99 820.542C996.672 828.919 1020.33 851.006 1048.87 845.528C1055.38 848.581 1063.19 850.35 1071.31 850.612C1075.37 857.026 1075.45 865.287 1091.12 865.196C1100.31 865.137 1120.14 853.46 1121.16 848.008C1121.38 846.925 1119.44 842.168 1117.52 839.625C1111.11 831.202 1094.16 819.037 1081.93 806.484C1064.49 788.584 1044.03 775.357 1045.34 760.795C1044.57 762.282 1042.32 762.502 1039.09 761.906C1038.38 759.161 1035.02 757.5 1036.88 753.678C1048.66 756.62 1064.94 757.666 1064.88 765.581C1062.84 768.802 1055.24 767.358 1050.68 768.477C1064.3 773.234 1067.72 766.803 1075.71 764.075C1092.2 766.195 1106.83 767.963 1122.93 765.636C1126.86 762.525 1125.41 758.315 1126.01 754.43C1137.11 746.781 1158.43 742.095 1159.62 729.652C1159.24 732.503 1156.77 733.617 1152.66 733.333C1149.29 731.439 1146.19 729.433 1147.32 725.648C1150.47 724.552 1159.84 725.478 1160.1 727.917C1159.23 725.498 1159.81 722.45 1161.02 719.138C1157.95 718.149 1161.79 714.251 1161.48 712.095C1160.41 711.769 1158.63 711.757 1158.82 710.904C1150.94 705.737 1141.17 694.386 1150.52 686.937C1142.42 676.337 1131.59 666.902 1121.46 657.157L1120.02 657.002C1114.51 653.26 1109.65 649.165 1105.51 644.784C1078.81 620.877 1048.05 598.687 1022.05 574.504C1013.48 566.384 1004.2 558.567 994.256 551.086C990.104 546.706 985.242 542.606 979.747 538.852C945.531 510.726 912.184 482.253 882.942 452.046C887.722 449.336 896.725 450.177 904.381 449.916C908.862 446.883 907.227 440.878 907.931 436.991C909.378 435.385 916.394 438.454 915.881 435.172C911.656 434.906 908.599 434.169 907.677 432.515C907.347 428.714 911.22 428.434 914.894 427.974C916.689 429.491 916.484 431.881 919.467 432.899C925.708 426.748 946.086 422.623 941.082 413.935C940.878 416.25 938.305 416.538 934.575 415.891C931.51 414.432 929.433 412.303 928.76 409.926C932.432 407.738 937.544 409.769 941.796 411.335C942.324 404.883 944.815 398.469 945.068 393.931C944.542 394.906 942.513 394.629 940.493 394.325C933.375 379.26 921.046 362.305 919.068 347.619C924.187 349.538 923.627 353.849 928.749 355.772C930.558 348.394 927.951 342.882 923.111 338.288C929.266 342.851 949.592 348.691 942.709 353.732C952.528 361.914 972.612 364.343 989.753 366.804C990.138 362.055 984.109 360.008 983.925 355.509C989.179 356.095 989.735 358.669 993.089 360.065C994.367 358.615 989.842 356.022 994.276 355.744C1004.37 358.637 1010.12 363.343 1016.26 367.895C1018.05 364.631 1010.85 360.373 1016.92 359.978C1021.71 365.058 1034.67 369.494 1048.56 369.597C1041.92 362.968 1034.1 356.848 1027.02 350.401C1039.33 355.044 1044.86 358.516 1052.62 365.606C1055.07 361.522 1049.22 360.938 1047.06 358.786C1051.3 358.298 1051.32 352.979 1046.55 355.182C1047.34 355.257 1047.98 356.05 1046.31 356.046C1039.36 350.763 1033.12 343.039 1037.56 339.115C1045.02 342.598 1052.29 346.159 1060 349.535C1058.41 346.613 1054.67 340.616 1058.75 337.863C1063.12 340.978 1061.54 338.746 1063.31 337.45C1066.69 338.137 1070.51 342.531 1074.44 340.439C1070.49 338.72 1077.1 337.152 1080.9 338.466C1078.61 333.594 1070.67 331.084 1066.16 327.105C1066.66 326.479 1067.66 326.238 1069.29 326.556L1070.24 323.116L1071.68 323.271C1069.05 325.51 1072.86 328.729 1075.33 326.326C1073.8 325.951 1072.24 324.52 1074.36 324.451C1077.22 325.018 1076.56 327.082 1079.43 327.651C1079.87 331.273 1084.41 333.192 1087.65 335.646C1087.79 336.343 1087.22 337.345 1088.64 337.524C1089.18 338.218 1089.48 338.974 1089.52 339.745C1089.56 340.516 1089.35 341.284 1088.89 341.999L1094.67 342.623C1094.9 340.993 1094.5 339.645 1092.74 338.855C1092.79 337.961 1099.43 337.791 1094.89 336.429C1092.21 335.007 1087.92 334.269 1088.83 331.327L1089.54 328.744L1099.68 329.839C1101.24 329.995 1102.68 330.462 1103.79 331.171L1103.55 332.034C1108.15 331.919 1106.48 331.738 1110.76 332.813C1110.86 331.501 1112.16 329.692 1110.27 329.212C1109.84 329.749 1109.12 330.171 1108.24 330.4C1107.35 330.63 1106.37 330.653 1105.46 330.464C1102.19 326.494 1093.94 320.562 1095.75 316.995C1100.89 319.669 1102.98 323.63 1108.08 326.315C1101.29 318.986 1100.68 309.07 1097.36 300.298C1100.23 300.62 1098.55 302.844 1102.68 302.644C1102.22 299.02 1097.68 297.101 1094.44 294.646C1067.82 266.151 1030.02 242.337 1006.82 212.382C1006.77 211.28 1006.36 210.197 1005.61 209.199C1004.87 208.2 1003.81 207.308 1002.49 206.577C998.435 200.386 995.884 193.565 987.939 189.037C986.487 191.672 991.844 191.465 989.396 194.514C984.206 188.559 978.234 182.932 975.129 176.098C976.178 176.421 977.955 176.436 977.771 177.274C978.673 178.676 979.187 180.244 982.854 180.498C985.047 179.555 985.636 177.482 982.341 176.877C979.474 174.274 974.518 172.533 972.423 169.604C985.944 174.323 1008.21 184.676 1013.73 192.71C1041.44 201.707 1066.14 215.973 1100.1 219.798C1103.72 222.094 1106.22 224.861 1115.09 224.962C1115.58 222.461 1117.43 219.403 1115.52 217.901C1109.88 216.683 1107.03 217.847 1102.26 217.356C1101.64 215.082 1099.23 213.544 1099.58 210.865C1102.46 211.16 1102.06 208.708 1105.85 209.767C1114.87 217.241 1139.96 213.266 1149.01 220.637C1152.46 216.139 1144.82 216.287 1145.13 213.111C1146.04 213.294 1147.02 213.268 1147.9 213.039C1148.78 212.809 1149.5 212.392 1149.94 211.86C1145.61 210.114 1142.71 207.765 1138.11 206.149C1139.29 204.215 1145.13 204.524 1142.17 202.143C1131.01 196.663 1113.24 193.946 1106.21 186.718C1109.56 184.348 1113.82 189.328 1116.58 186.95C1101.2 179.159 1079.82 173.883 1064.19 166.194C1064.71 165.218 1066.72 165.509 1068.76 165.803C1073.17 167.378 1070.64 163.124 1075.01 164.704L1074.31 167.287C1114.43 178.684 1142.75 195.053 1180.98 207.217C1160.66 191.595 1121.22 183.982 1097.45 169.787C1100.6 167.541 1102.17 172.315 1107.33 171.743C1108.19 168.851 1101.12 169.268 1099.62 167.362C1097.3 166.284 1091.84 166.552 1093.07 163.993C1114.69 164.807 1127.13 179.561 1146.41 181.296C1142.05 180.214 1144.69 178.406 1147.36 177.839C1140.85 177.556 1133.95 170.778 1131.64 169.939C1132.41 170.208 1130.22 171.831 1128.29 171.348C1119.96 169.243 1107.52 163.493 1106.56 158.351C1109.25 158.102 1111.87 161.526 1113.77 159.13C1108.8 157.388 1099.13 154.44 1102.41 151.684C1108.03 155.691 1121.48 156.399 1121.74 162.65C1120.93 162.3 1116.76 159.905 1115.94 162.024C1121.29 163.354 1123.87 165.824 1129.47 167.03C1130.96 168.005 1134.57 171.912 1137.67 169.703C1133 169.619 1134.49 166.965 1131.17 166.325C1131.26 164.257 1124.44 165.073 1126.31 162.256C1146.73 167.688 1160.93 179.772 1183.49 181.746C1179.22 179.471 1171.21 178.763 1170.46 175.019C1180.27 178.636 1189.36 176.376 1196 174.219C1194.25 173.944 1192.65 173.596 1193.57 172.185C1194.75 172.12 1195.46 171.653 1195.49 170.619C1198.17 170.395 1203.71 172.581 1204.4 170.694C1205.86 170.852 1206.32 170.188 1207.53 170.146L1208.72 165.827C1206.7 165.142 1205.42 164.166 1203.42 163.483C1203.34 161.485 1195.75 162.637 1195.21 160.823C1194.96 156.349 1187.28 154.996 1184.33 151.653C1186.86 147.03 1183.19 144.993 1177.54 143.816C1176.39 146.845 1183.86 146.254 1181.9 149.618C1174.17 150.818 1165.08 146.695 1162.84 143.112C1155.44 143.158 1147.36 136.907 1141.58 133.724C1145.55 133.179 1147.78 137.085 1150.28 134.665C1142.98 133.309 1141.05 128.306 1135.07 130.348C1138.26 129.922 1140.96 133.298 1137.24 133.256C1112.7 123.457 1090.53 112.661 1068.44 101.848C1069.33 101.884 1070.19 101.904 1070.12 101.143C1084.29 107.399 1098.47 113.661 1112.64 119.928C1119.15 122.8 1127.33 129.002 1135.54 128.621C1129.65 126.833 1124.27 124.451 1119.61 121.57L1122.49 121.881C1126.46 121.353 1128.7 125.255 1131.19 122.82C1126.47 122.268 1126.33 119.783 1120.09 119.847C1119.95 119.135 1119.15 118.718 1117.45 118.675C1115.77 118.362 1113.28 118.384 1113.35 117.344C1113.83 114.347 1110.06 113.122 1105.83 112.101C1105.34 112.729 1105.35 113.793 1103.92 113.669C1093.68 109.815 1083.68 105.874 1076.16 100.903C1080.93 99.0814 1072.33 95.4624 1068.19 97.368C1061.19 95.9877 1058.36 92.8478 1052.03 91.1905C1043.9 86.461 1033.32 82.7572 1024.26 78.4301C1021.08 76.3748 1017.6 74.5098 1013.87 72.8591C1009 70.8057 1000.26 66.3762 994.566 67.2256C1000.74 69.2151 1007.5 70.9505 1012.2 73.563C1011.62 74.7059 1019.07 76.0796 1014.36 76.4711C999.711 75.5116 987.725 71.0222 985.657 67.1512C976.594 66.0396 967.803 63.4932 963.45 61.1928C931.617 44.4113 906.258 6.56619 855.01 0.647894C857.914 1.71737 859.534 3.33358 857.924 6.29837L857.963 6.31089ZM102.234 166.152C105.156 167.226 106.779 168.827 105.152 171.788C102.256 170.74 100.62 169.119 102.234 166.152ZM27.7125 247.775C30.7786 249.284 30.7853 252.073 31.832 254.436C28.0764 253.265 25.3859 249.125 27.7125 247.775ZM-62.0913 260.26C-56.9214 260.211 -57.7507 263.853 -60.3982 264.89C-63.1466 263.944 -65.5877 261.66 -62.0913 260.26ZM-29.4288 293.101C-25.6908 296.832 -23.2888 301.029 -22.3884 305.4C-26.7661 302.167 -28.8457 297.945 -31.1031 293.809C-34.0021 289.672 -38.2218 286.109 -37.9261 280.645C-31.0593 283.1 -31.6742 288.701 -29.4288 293.101ZM414.402 813.385C405.662 806.922 397.583 800.119 390.212 793.016C386.319 790.636 383.051 787.884 380.532 784.862C376.245 782.145 372.581 779.066 369.648 775.715C363.739 771.623 358.47 767.184 353.914 762.46C347.61 757.738 341.355 752.981 337.234 747.349C333.356 744.961 330.09 742.211 327.554 739.196C323.268 736.472 319.606 733.387 316.673 730.031C305.24 721.858 296.058 712.75 286.688 703.698C166.841 604.45 83.1178 485.016 -0.638751 367.24C-11.995 351.282 -24.4222 335.465 -35.0971 319.125C-45.5989 303.01 -57.5314 286.099 -58.452 268.652C-53.2443 269.004 -51.2276 270.704 -52.4021 273.752C-18.678 331.056 21.0202 385.87 61.1509 440.495C62.7027 443.565 64.9053 446.49 67.6995 449.192C67.4181 449.757 67.4844 450.367 67.8853 450.903C68.2862 451.439 68.9927 451.862 69.8654 452.087C72.9904 458.221 77.3925 464.068 82.9576 469.479C84.0144 472.343 85.0502 475.216 88.2978 477.163C90.7802 481.969 93.3043 486.757 97.9892 490.652C98.9039 493.864 101.163 496.865 104.536 499.349C107.944 499.21 103.154 497.804 106.688 496.906C119.579 511.599 130.14 527.253 143.516 541.734C147.741 547.594 152.073 553.409 158.3 558.413C154.329 552.463 151.724 545.929 145.207 541.029C126.775 512.128 103.82 485.148 86.7421 455.694C87.5102 453.508 90.2176 452.961 92.2658 451.844C93.6763 452.022 93.1029 453.024 93.2539 453.737C92.9294 456.139 96.7876 456.821 99.5224 457.956L98.5758 461.402C100.956 461.278 100.571 458.828 104.847 460.309C105.353 459.327 104.933 458.733 103.856 458.425C101.322 456.396 105.942 456.621 107.699 455.299C104.573 453.623 98.2794 450.59 100.685 448.322C98.3098 447.727 97.7679 448.688 97.3111 449.728L95.874 449.573C96.1095 448.002 98.1472 447.941 98.2575 446.283C95.4393 445.677 93.6848 445.963 93.4476 447.541C88.5555 446.34 95.2461 443.33 90.7691 441.033L87.9014 440.723C89.484 438.012 88.633 436.339 86.403 435.226C88.9973 433.908 80.8043 430.912 78.1981 432.567C75.9656 435.551 84.2175 434.117 84.7485 435.936L84.509 436.808C80.7221 437.172 77.6604 438.13 77.2915 441.347C71.5497 431.293 64.2053 421.913 60.2935 411.103C58.7899 410.48 57.5869 409.612 56.8153 408.591C56.0437 407.569 55.7329 406.435 55.9167 405.311C53.2476 404.309 51.5378 401.73 54.224 400.681C58.2917 400.74 54.675 404.042 57.595 404.588L57.3538 405.466C60.7254 406.339 59.6966 409.06 60.2952 411.103C62.2283 412.82 68.142 412.876 68.0292 415.483C66.5324 417.634 67.7327 418.655 71.6302 418.547L70.2122 423.71C75.1925 423.332 73.8787 421.868 77.4514 424.492C78.5735 422.756 77.077 422.097 76.9321 420.891C82.1091 420.029 78.4864 418.375 80.0557 415.01C74.7401 413.008 78.5318 418.679 74.7657 417.998C73.0451 416.941 73.6861 414.888 71.3761 414.072C73.2432 410.49 64.0325 411.566 67.2396 407.406L68.7044 407.564C73.2547 408.581 75.575 407.711 79.0744 407.814L80.4854 407.967C79.0237 410.103 80.2207 411.121 84.115 411.018C82.6683 413.649 86.3601 414.729 82.6973 416.18C87.3241 416.62 84.4536 418.62 90.6616 419.715C90.8169 416.099 85.1529 414.921 85.5762 411.177C82.3317 410.488 85.239 407.243 80.7263 407.09C81.1893 405.892 81.6503 404.677 80.0235 404.358C78.2724 402.277 75.6675 400.571 74.1845 398.393C74.7099 397.42 74.314 396.836 73.2397 396.519C72.8516 394.631 70.9589 393.407 70.0614 391.745C69.6243 390.895 69.2176 390.052 67.6427 389.696C65.7507 383.125 59.6446 378.309 57.6843 371.761C60.6594 372.491 60.7774 370.817 61.2962 369.477C55.5292 370.059 54.7567 364.671 58.3763 363.848C58.1898 359.597 56.0645 356.157 53.9832 352.716C50.1188 351.532 52.1521 347.888 49.8608 346.053C48.5102 344.57 46.2695 343.503 46.7098 341.265C52.4463 341.411 49.0643 345.359 52.7448 346.364C53.0228 347.701 54.69 346.226 57.0821 346.833C55.6541 349.28 63.1319 351.848 58.3222 353.185L57.6106 355.776C59.9836 356.355 60.5293 355.393 60.9816 354.369C63.5431 356.3 65.6953 357.231 62.4416 359.846C66.1885 362.458 75.5948 365.582 73.8315 372.625C77.1552 371.329 85.7135 370.658 82.7102 367.364L85.6072 367.677C82.8665 372.427 95.1555 373.957 90.4779 377.083C89.4712 376.367 86.8844 375.315 86.1373 376.614C83.7242 375.704 86.3605 375.026 86.8467 374.031C80.8091 375.604 82.1581 371.87 78.1737 373.094C79.7047 381.895 92.8677 394.185 99.0481 405.533C99.3156 407.524 95.9335 406.458 95.4369 407.802C96.1912 410.382 99.6389 406.963 101 409.288C101.879 411.724 100.622 415.049 106.795 415.249C107.917 415.545 107.998 416.267 109.46 416.425C111.665 419.567 108.798 424.837 117.44 425.276C113.883 427.985 116.123 429.597 120.359 430.922C125.831 429.773 119.553 427.292 120.339 425.589L120.576 424.727C122.955 424.984 124.171 423.444 127.304 421.895C130.983 423.659 126.75 428.751 134.322 428.871C136.699 441.481 153.932 450.985 160.027 465.39C155.53 467.681 163.329 468.548 158.368 471.428C162.768 472.993 160.258 468.757 164.642 470.319L166.083 470.474C171.476 478.904 176.829 487.328 184.748 494.694C181.044 495.05 177.522 500.988 186.208 500.187L187.673 500.345C197.089 510.632 205.148 521.487 213.122 532.386C214.539 531.944 216.149 531.807 217.702 531.996C216.578 534.91 212.213 534.062 216.52 536.301C214.202 536.123 211.098 535.294 210.502 536.539C209.827 537.58 207.383 537.099 207.602 536.225C202.811 533.655 205.664 527.887 196.694 527.067C203.417 531.682 192.473 531.971 197.495 535.133C197.905 537.911 199.612 538.206 204.237 537.633C203.781 538.35 203.57 539.119 203.618 539.89C203.666 540.662 203.972 541.418 204.516 542.11C206.79 542.598 207.224 541.555 209.09 541.716L214.871 542.341C214.768 541.372 212.148 541.449 212.442 540.306C217.223 542.202 214.122 537.464 217.493 538.177C215.668 540.904 220.006 539.815 220.391 538.49C223.163 538.88 216.964 541.589 222.342 542.26C223.08 545.511 229.163 546.512 229.119 550.099L228.883 550.961C225.131 552.601 223.333 550.056 218.748 549.866C221.133 546.577 215.146 546.801 217.528 543.516C212.911 543.742 213.4 545.565 208.616 543.436C208.202 546.663 211.425 548.365 215.869 549.555C211.237 551.409 216.083 552.688 215.89 554.878C220.287 556.452 217.76 552.212 222.142 553.776C221.637 554.753 222.053 555.351 223.133 555.66C222.648 556.331 221.432 556.36 221.191 557.238C222.845 557.542 223.837 557.313 224.327 556.688C226.911 558.146 222.965 562.336 230.383 561.775C230.263 560.805 227.662 560.883 227.955 559.739L228.664 557.157C230.163 556.604 231.409 555.817 232.279 554.872L235.158 555.183C234.698 556.395 234.256 557.602 235.902 557.939C238.085 557.102 238.273 557.846 240.242 558.408L239.297 561.85C239.325 563.296 237.512 563.185 237.122 564.274C236.959 567.995 245.322 569.29 240.785 572.666C243.341 573.057 244.118 571.936 246.796 572.428C247.74 570.016 241.906 569.835 246.546 567.952C247.658 568.787 248.403 569.79 248.708 570.861C250.034 571.834 248.294 574.084 252.339 573.915C256.16 574.858 253.354 578.569 258.389 579.014C258.601 580.193 260.583 580.64 260.578 581.91C260.116 583.122 259.657 584.322 261.335 584.645C264.719 585.303 264.853 591.235 269.066 589.03C270.946 589.508 269.661 591.33 269.535 592.638L271 592.796C279.871 597.155 288.373 605.064 286.745 611.371C290.877 613.458 293.072 616.339 296.666 618.662C295.02 618.703 295.195 620.259 293.291 620.071C293.912 615.705 288.582 619.779 289.684 622.341C288.884 623.691 290.657 623.969 290.44 625.082C289.232 624.788 288.968 625.272 288.735 625.797C287.648 625.075 286.206 624.602 284.639 624.455C286.617 622.082 286.652 621.953 286.058 619.289C283.643 618.838 281.899 620.352 281.718 618.82C285.377 617.138 290.487 614.257 281.202 615.206L279.785 615.052C278.801 612.678 286.828 612.703 282.385 610.901L283.093 608.32C282.188 607.2 282.021 605.901 282.627 604.704C279.217 603.976 279.022 605.943 275.13 604.782L270.792 604.314C272.975 600.119 269.545 599.165 265.747 601.109C266.701 598.411 267.217 595.907 264.486 594.753C262.077 594.758 262.228 593.668 260.386 593.422C259.967 591.823 263.528 588.548 260.386 588.094C259.746 586.832 257.719 586.158 255.061 585.747C255.568 584.77 255.155 584.186 254.071 583.862C252.854 581.336 248.49 580.105 250.187 576.343C243.799 576.752 248.919 580.736 249.967 582.537C246.252 582.218 242.95 582.284 240.817 583.32C240.735 585.187 245.038 582.496 246.382 584.809C245.894 585.481 244.682 585.507 244.445 586.371C240.695 587.521 245.975 591.284 248.824 592.173C249.577 593.002 249.835 593.973 249.552 594.911C249.989 595.758 250.402 596.605 251.975 596.96C252.075 597.932 254.695 597.851 254.381 598.995C253.772 601.284 257.823 601.631 259.236 603.064C260.156 605.955 256.379 604.924 255.404 606.209C257.509 607.948 259.218 606.479 263.845 608.009C262.207 611.233 268.091 611.306 264.829 615.221C272.719 614.621 268.094 609.599 265.496 607.299C266.404 607.486 267.388 607.463 268.271 607.233C269.153 607.003 269.875 606.583 270.306 606.048C273.434 607.025 269.399 611.004 274.924 610.978L274.688 611.84C275.441 612.671 275.708 613.64 275.443 614.581C271.706 614.283 272.221 617.543 269.921 618.43C269.802 620.275 274.102 617.589 275.442 619.912C275.516 622.442 278.668 623.645 281.511 625.016C284.147 625.431 281.589 628.018 283.447 628.772C287.103 626.243 285.786 628.836 290.679 629.554L290.444 630.411C284.656 630.063 290.773 633.197 286.601 633.544C284.495 631.515 281.327 632.725 284.668 629.787C277.196 630.651 284.149 633.872 284.453 635.983L283.009 635.827C280.42 635.865 277.906 635.277 275.989 634.184C276.197 633.335 274.421 633.318 273.348 632.995C273.91 632.523 277.848 630.071 274.293 629.555L274.766 627.835C269.775 626.609 268.959 623.66 266.055 621.557C264.735 620.584 266.489 618.336 262.427 618.505C262.304 617.912 261.847 617.365 261.138 616.963C260.43 616.562 259.516 616.333 258.562 616.317C259.088 615.341 258.673 614.741 257.614 614.441C255.651 613.473 256.275 611.432 255.884 609.808L250.106 609.183C249.608 610.129 244.444 614.716 251.583 614.673C250.785 616.015 252.55 616.305 252.338 617.414C252.879 618.107 253.179 618.864 253.22 619.635C253.26 620.407 253.039 621.174 252.572 621.888C255.082 624.093 257.472 621.632 259.593 623.533C259.097 624.235 259.913 624.395 260.774 624.545C260.894 625.519 263.494 625.437 263.22 626.586C261.599 626.771 257.214 629.38 262.512 629.164L262.275 630.026C262.003 630.867 260.299 630.511 259.119 630.574C258.884 632.204 259.285 633.567 261.089 634.346C262.059 635.271 263.391 636.024 264.957 636.535L266.345 636.685C264.954 639.574 261.365 642.614 269.027 643.193C268.575 643.9 269.39 644.062 270.247 644.213C267.274 646.361 275.852 647.271 275.81 645.702C279.441 646.792 271.444 649.397 277.511 650.317C273 650.92 274.742 653.358 279.46 654.087C278.628 655.153 276.523 655.164 275.852 656.356C272.179 658.46 277.46 661.907 279.753 663.886C282.644 663.524 281.456 661.425 284.33 663.491C285.451 663.77 285.507 664.507 286.968 664.665C289.418 666.726 285.878 666.286 284.588 667.95C286.053 671.157 291.418 672.712 292.803 675.946C296.174 676.657 293.092 671.935 297.857 673.832L297.147 676.415C293.618 676.732 296.78 680.546 298.857 681.046C299.981 682.342 299.331 684.396 302.253 684.954C305.301 686.597 304.44 687.07 309.251 686.601C308.765 687.272 307.549 687.305 307.314 688.161C309.458 690.064 310.135 692.582 313.127 694.125C315.091 695.337 316.016 696.98 317.961 698.19L320.865 698.504C318.18 702.096 325.981 706.064 329.83 709.254C330.246 710.083 330.659 710.927 332.233 711.286C339.971 717.354 340.577 724.465 346.552 729.691L347.026 727.965C348.916 729.068 351.418 729.663 353.998 729.623C353.912 731.122 350.926 731.587 353.288 732.207C354.563 733.203 355.763 734.23 356.918 735.253C357.941 738.24 352.06 735.415 353.096 738.387L355.968 738.698C357.853 739.964 357.327 742.203 359.119 743.487C357.19 745.673 356.453 741.162 353.837 741.145C350.507 741.376 355.763 744.296 357.232 745.054C358.578 747.029 358.322 749.677 363.26 750.154C362.81 750.841 363.606 751.019 364.488 751.175C366.266 753.469 368.617 755.528 370.049 757.994C368.864 757.689 368.582 758.168 368.375 758.685C363.932 756.487 359.39 754.323 358.691 750.548C356.587 749.141 356.514 746.88 350.73 747.012C348.914 746.509 348.866 745.256 346.865 744.823C347.255 748.482 357.153 754.738 362.358 758.935C362.419 759.656 363.558 759.953 363.323 760.811C369.094 766.549 375.56 772 382.663 777.116C383.588 777.426 384.393 777.86 385.02 778.387C385.646 778.915 386.08 779.523 386.289 780.167C392.614 784.585 398.285 789.355 403.232 794.417L404.673 794.573C410.06 802.287 426.486 809.272 426.944 816.515C423.508 817.93 424.21 815.826 421.382 815.03C418.643 813.746 418.594 813.767 419.708 815.733C419.928 816.377 420.365 816.983 420.99 817.512C421.615 818.041 422.414 818.48 423.332 818.8C419.271 820.455 416.41 815.133 414.4 813.386L414.402 813.385ZM409.401 777.334C411.346 776.194 406.457 779.151 409.679 781.811C404.108 779.812 401.123 776.746 398.555 773.502C402.92 771.753 404.639 775.42 404.824 777.726C407.097 778.216 407.554 777.175 409.398 777.332L409.401 777.334ZM407.74 783.37C408.003 781.47 412.978 783.531 415.211 783.296C413.279 788.692 427.385 789.651 422.726 793.867C417.999 791.845 415.223 786.315 407.74 783.37ZM408.27 792.305C404.7 788.97 398.162 786.884 397.618 782.276C400.663 785.833 407.943 787.608 408.27 792.305ZM482.93 786.164C490.991 786.595 494.46 795.557 501.779 798.85C492.17 799.059 488.648 790.134 482.93 786.164ZM506.372 803.792C510.777 807.538 514.309 811.651 519.681 814.991C514.843 814.85 503.545 807.206 506.372 803.792ZM318.501 658.311C317.505 659.496 317.253 658.09 315.602 657.998C317.095 655.846 315.87 654.826 311.973 654.946C311.961 653.506 313.762 653.598 314.15 652.51C313.252 650.837 309.204 650.504 309.294 648.438C304.178 646.272 306.567 640.936 298.17 640.128C298.38 638.89 298.61 637.665 300.344 637.704C302.926 637.652 305.436 638.243 307.327 639.346C305.276 643.513 314.859 642.803 310.987 647.731C312.157 648.02 312.442 647.539 312.668 647.028C315.783 647.493 315.176 649.536 314.384 651.646C316.275 651.113 318.412 651.028 320.395 651.408C321.818 656.155 327.736 659 330.573 663.163L329.624 666.617C329.162 667.276 327.947 667.319 327.709 668.184C327.44 669.01 325.757 668.654 324.573 668.734C324.5 667.99 323.372 667.715 323.609 666.85C324.036 663.105 318.078 662.055 318.504 658.31L318.501 658.311ZM534.713 884.992C531.732 886.467 536.547 889.298 539.089 890.793C531.932 891.226 526.606 884.332 522.412 881.002C523.026 878.159 527.373 885.676 534.713 884.991L534.713 884.992ZM790.867 895.79C790.386 899.271 789.182 902.165 785.839 903.243C783.177 902.051 780.055 901.074 779.554 899C781.296 896.245 784.548 894.733 790.867 895.79ZM753.539 901.524C753.37 894.082 765.586 892.143 774.458 895.796C772.068 901.539 761.153 900.153 753.539 901.524ZM487.588 855.922C489.636 856.535 486.724 856.962 486.88 858.501C487.075 859.352 490.583 859.731 491.221 858.97C493.177 859.504 490.926 860.508 489.302 860.55C489.564 863.75 496.396 860.449 493.898 865.483C499.655 867.584 513.764 877.216 517.593 882.253C521.077 882.38 524.122 885.533 526.529 887.649C512.761 884.523 502.111 873.488 493.898 865.483C479.275 854.659 472.198 847.227 459.788 837.832C471.192 838.131 477.858 852.966 487.588 855.921L487.588 855.922ZM565.684 859.022C560.129 856.26 558.209 851.98 553.568 848.834C553.717 847.979 566.312 854.511 565.684 859.022ZM480.061 840.022C474.966 841.841 473.527 835.657 469.67 834.452C475.621 832.251 474.049 839.707 480.061 840.022ZM456.437 839.241C459.387 843.344 465.355 846.18 468.305 850.29C469.432 850.569 469.485 851.306 470.95 851.464C477.261 855.888 482.929 860.657 487.885 865.714L487.648 866.578C495.976 871.998 501.324 878.647 509.661 884.054C513.738 881.791 510.602 888.045 516.657 885.698C520.845 886.732 514.775 887.398 515.711 889.14C516.664 888.668 517.827 888.391 519.041 888.349C520.254 888.307 521.458 888.502 522.488 888.906C523.518 889.311 524.324 889.905 524.794 890.608C525.265 891.31 525.377 892.087 525.116 892.832C526.809 892.84 526.171 892.042 525.353 891.967C530.316 890.934 538.589 895.027 540.083 897.991C538.959 897.71 538.878 896.978 537.44 896.823C533.565 900.311 530.883 897.246 526.36 899.169C522.815 898.653 526.741 896.218 527.305 895.728C522.129 897.129 523.7 895.639 521.269 895.959C517.22 894.756 525 895.039 523.679 892.676C517.894 896.392 514.724 889.165 510.154 887.665C501.955 881.683 493.128 875.991 486.945 869.173C478.639 865.795 476.285 859.899 469.778 855.769C465.081 852.703 461.01 849.282 457.658 845.586C457.242 844.753 456.83 843.912 455.252 843.556C452.052 842.611 452.158 840.272 448.985 839.331C449.842 841.761 453.9 842.856 454.779 845.276C457.727 849.387 463.693 852.231 466.648 856.322C469.915 859.524 472.933 862.844 477.536 865.493C471.994 866.273 468.393 859.683 464.952 857.043C457.832 852.392 452.771 846.89 446.814 841.757C442.93 837.298 422.936 823.384 429.388 823.889C435.689 828.319 441.349 833.093 446.3 838.154C447.508 838.45 447.77 837.964 448.005 837.438C443.308 834.379 439.241 830.962 435.897 827.269C435.814 824.917 428.72 823.5 432.984 821.618C437.642 821.701 436.184 824.351 439.531 824.984C445.832 829.415 451.492 834.189 456.443 839.25L456.437 839.241ZM464.1 827.639C467.713 830.664 470.469 829.942 470.389 831.866C467.651 833.708 463.525 829.73 464.1 827.639ZM547.269 839.302C540.82 841.206 540.511 834.008 535.682 832.713C543.077 830.404 541.148 838.523 547.269 839.302ZM462.64 827.481C456.966 823.733 448.672 819.379 444.735 811.35C451.481 818.053 458.826 819.79 462.64 827.481ZM436.1 815.736C445.744 819.063 446.008 826.325 456.17 829.461C439.062 825.592 433.517 810.593 423.758 806.412C428.147 807.163 425.611 803.416 422.319 806.257C422.676 800.105 439.052 813.281 436.1 815.735L436.1 815.736ZM888.219 850.383C886.042 851.354 881.061 850.816 879.546 849.446C880.434 845.185 889.045 846.434 888.219 850.383ZM782.818 773.288C786.066 776.399 782.165 779.816 784.081 784.962C788.605 797.106 807.574 793.176 818.346 801.102C818.38 803.242 815.205 802.697 815.743 805.252C819.298 805.768 822.706 806.178 823.435 804.311C830.467 810.766 840.096 816.137 843.288 824.215C847.532 825.239 856.039 824.46 857.502 826.638C861.028 828.944 864.337 831.376 867.413 833.923C863.05 837.691 855.161 840.445 857.843 847.096C851.142 848.192 847.293 851.667 841.239 853.298C832.672 849.623 834.598 851.202 823.885 851.423C819.483 847.677 814.5 844.16 812.255 839.502C817.319 841.862 821.73 839.563 827.205 839.337C831.778 829.564 825.341 823.141 816.97 816.934C811.293 816.03 806.311 815.726 803.488 817.249C787.064 807.368 775.099 795.584 760.212 785.055C756.48 781.014 752.021 777.256 746.921 773.853C746.955 767.939 762.512 759.159 746.101 755.101C740.69 753.781 738.462 755.548 729.732 755.12C724.447 754.272 725.317 750.868 722.458 749.003C725.049 744.81 731.442 743.814 737.625 742.653C747.173 751.135 772.426 763.322 782.812 773.28L782.818 773.288ZM719.246 728.238C717.297 731.195 714.39 733.349 708.915 733.323C703.924 726.003 690.271 722.331 694.087 711.312C706.247 715.368 710.489 722.744 719.246 728.238ZM1126.96 750.974C1146.56 750.213 1123.38 739.015 1126.96 750.974V750.974ZM1127.64 737.737C1128.63 734.355 1135.46 740.121 1133.67 742.82C1127.83 742.737 1127.79 740.206 1127.64 737.737ZM1145.96 741.487C1143.77 742.746 1140.54 745.432 1138.01 743.288C1139.02 740.067 1132.51 740.017 1135.57 735.932C1142.4 736.365 1143.44 739.236 1145.96 741.487ZM993.969 595.448C987.325 596.576 994.357 600.053 998.349 601.24C998.76 602.069 999.177 602.912 1000.75 603.273C1001.41 603.694 1001.73 607.694 1003.18 605.306C1005.81 605.738 1003.27 608.325 1005.13 609.076C1004.65 609.738 1003.43 609.781 1003.19 610.641C1004.75 612.623 1008.41 610.334 1011.63 612.438C1008.46 609.436 1011.02 607.506 1007.5 605.773C1007 602.741 1004.31 605.328 1002.21 603.431C1001.92 602.859 999.515 599.724 1003.16 599.985C1016.09 602.635 1021.73 611.018 1032.85 616.508L1031.9 619.963C1029.04 621.469 1026.93 629.145 1028.82 631.17C1028.38 632.876 1032.48 632.695 1030.78 634.923C1026.31 633.915 1025.85 636.06 1023.54 634.141C1024.52 635.389 1025.08 636.746 1025.22 638.133C1025.35 639.519 1025.04 640.909 1024.31 642.22L1023.83 643.956C1022.37 645.918 1023.93 650.402 1020.5 650.688C1019.74 649.859 1019.47 648.888 1019.74 647.947C1018.12 647.982 1018.31 649.563 1016.4 649.356C1016.7 644.393 1009.74 642.491 1005.74 639.326C1004.11 637.478 1003.54 635.15 998.014 634.944C998.106 633.388 1000.66 630.788 996.062 631.173C996.528 630.488 995.722 630.312 994.86 630.161C994.117 628.176 988.876 628.085 986.872 626.638C990.139 624.038 987.041 622.807 983.958 620.987C982.473 618.415 979.437 616.49 974.55 617.311C970.556 613.088 968.686 608.645 963.908 607.282C959.813 607.479 966.063 603.332 961.971 603.528C962.456 602.55 962.06 601.953 960.987 601.651C956.918 601.211 963.782 604.365 957.616 603.058C957.82 602.224 956.022 602.19 954.949 601.883C956.01 601.405 956.729 600.684 956.95 599.876C957.172 599.068 956.879 598.238 956.135 597.564C953.893 598.458 952.538 599.877 951.801 597.096C953.831 594.469 950.33 594.16 948.402 593.184C946.594 592.666 946.574 591.417 944.542 590.98L943.105 590.825C943.092 589.396 944.866 589.488 945.251 588.397C946.018 586.559 940.226 587.463 938.277 586.756C935.723 585.724 939.955 586.411 940.187 585.189C933.653 583.103 927.341 580.909 924.494 577.277C924.916 574.8 929.856 576.127 928.809 572.422C925.258 570.981 923.925 576.168 924.473 571.954C921.395 571.13 921.959 573.37 919.663 573.207C918.368 573.23 918.379 572.72 918.434 572.189C920.465 569.559 916.959 569.255 915.045 568.266C914.678 565.841 918.505 566.92 920.092 566.152C920.195 564.825 913.535 560.848 913.109 564.509C911.57 562.614 912.317 559.744 908.739 558.702C904.238 558.814 909.605 560.699 907.788 562.162C905.081 561.999 906.108 564.991 903.96 565.293C899.601 562.792 905.238 556.103 899.565 554.168C898.407 555.882 896.958 557.512 895.245 559.032C894.885 555.439 893.306 551.935 890.613 548.756C893.323 548.207 894.551 546.389 896.159 544.922C892.264 543.765 892.068 545.729 888.662 545C886.088 545.042 883.59 544.455 881.695 543.361C881.742 543.083 881.754 542.804 881.732 542.525C881.729 542.492 881.715 542.464 881.712 542.431C881.687 542.208 881.636 541.987 881.559 541.769C881.588 538.612 884.017 539.812 886.492 536.776C881.73 535.967 878.78 534.419 877.322 532.241C876.544 531.41 876.277 530.43 876.571 529.484C879.734 528.138 877.326 527.344 877.753 525.179C881.373 525.422 881.845 527.019 884.497 527.681C881.31 531.302 882.829 533.517 886.726 535.911C887.488 536.737 887.748 537.709 887.456 538.646C890.319 538.595 893.754 539.011 893.939 536.69C895.214 536.663 895.203 537.177 895.143 537.705C894.928 539.277 892.895 539.337 892.757 540.995C894.261 541.9 896.237 542.432 898.319 542.494L899.756 542.649C901.479 543.956 899.224 546.938 902.911 547.423L902.202 550.005C903.818 549.613 904.247 548.19 907.012 548.753C907.109 549.736 909.729 549.655 909.438 550.787C908.26 552.811 911.57 552.952 909.694 555.261C911.107 554.815 912.716 554.677 914.268 554.867C913.899 552.982 917.613 549.401 914.462 548.671C921.657 548.922 916.182 555.83 917.659 558.781C920.179 557.359 923.013 556.173 926.074 555.26C929.457 556.625 929.218 559.533 928.52 562.626C923.918 562.259 926.662 558.824 923.927 557.687C918.755 560.887 926.688 565.145 930.232 567.246C930.49 568.663 934.587 568.473 932.171 570.998C935.572 571.733 935.745 569.773 939.641 570.922C938.219 568.209 933.17 567.025 930.942 564.662C930.815 562.788 932.545 562.484 933.333 561.357C936.722 562.322 935.719 567.142 941.297 564.892C940.149 567.662 941.868 569.227 945.892 569.821L946.128 568.964C954.07 576.168 971.64 582.803 982.131 589.72C985.748 592.108 985.948 597.092 993.964 595.447L993.969 595.448ZM854.247 545.722C851.842 545.71 851.965 544.635 850.146 544.381C848.955 541.84 845.288 540.323 842.889 538.276C842.344 534.933 837.715 533.317 836.107 530.442C837.835 529.073 841.587 529.405 844.028 528.638C845.681 528.959 846.677 528.714 847.167 528.089C851.245 531.464 857.095 534.09 859.254 538.273C862.472 539.218 860.309 542.411 863.869 543.205C865.292 544.515 864.06 544.62 863.159 545.787C867.079 546.299 866.469 544.679 868.937 546.412L871.836 546.725C874.964 552.539 882.075 556.681 888.75 560.988L886.855 567.888C891.144 569.009 889.463 565.106 894.59 566.937C899.27 570.071 895.299 570.621 895.811 573.288C901.075 574.537 898.067 568.826 903.992 570.627C901.995 573.756 904.636 574.939 903.538 577.686C904.317 580.151 906.022 582.237 911.032 582.926C914.715 584.673 920.117 586.277 922.384 590.371C924.136 590.412 924.05 588.924 924.558 587.947C930.293 589.28 922.837 591.41 926.023 593.424C927.656 593.019 928.064 591.608 930.832 592.169C931.273 593.006 931.684 593.846 933.258 594.205L933.022 595.065C930.62 595.053 930.767 593.98 928.92 593.737C926.428 595.69 933.89 597.051 929.415 597.335C922.091 596.936 929.491 599.262 930.166 600.091C930.92 600.921 931.178 601.891 930.896 602.829C933.451 603.222 934.231 602.102 936.91 602.593C937.933 605.58 932.059 602.75 933.088 605.728C931.986 605.016 930.546 604.549 928.984 604.396C928.865 603.426 926.268 603.503 926.558 602.361C923.859 602.562 920.433 602.15 918.846 603.301L917.393 603.144C916.328 602.315 917.186 600.692 915.2 600.247L910.865 599.779C910.91 598.752 911.62 598.278 912.802 598.215C911.831 597.291 910.501 596.538 908.938 596.026C908.427 593.106 913.183 594.639 914.225 593.034C914.413 592.199 912.617 592.177 911.563 591.861C911.335 589.177 908.23 592.342 905.784 591.237C904.598 590.714 903.409 590.194 903.335 589.198C905.999 585.303 902.207 584.095 899.239 582.537C895.83 582.443 898.293 579.881 895.611 579.486C896.691 577.747 895.239 577.091 895.096 575.871C891.907 576.297 891.923 581.719 893.2 582.773C893.3 583.509 894.429 583.792 894.188 584.667C892.79 584.907 891.396 585.138 890.817 586.075C888.838 586.166 888.124 587.336 886.009 587.326C884.735 587.352 884.745 586.839 884.804 586.312C886.18 586.069 887.599 585.828 888.157 584.887C885.496 584.483 883.472 583.8 882.831 582.54C885.248 582.029 882.807 581.212 885.242 579.253C879.606 579.59 881.07 576.931 878.732 575.89L878.967 575.032C880.137 575.317 880.398 574.839 880.629 574.308C881.859 574.283 882.329 573.609 883.763 573.763L883.287 575.499C889.772 575.735 884.561 569.296 880.629 568.989C879.241 567.026 874.032 566.665 876.252 563.186L870.459 562.56C870.918 561.361 871.381 560.137 869.75 559.824C864.971 554.702 855.792 549.961 854.253 545.723L854.247 545.722ZM811.074 498.805C813.838 501.533 816.364 504.353 818.641 507.254C816.367 504.354 813.844 501.535 811.082 498.808L811.074 498.805ZM808.59 501.981C808.765 501.833 808.95 501.696 809.137 501.563C808.95 501.696 808.763 501.838 808.59 501.981ZM809.294 501.455C809.421 501.363 809.549 501.285 809.673 501.203C809.549 501.284 809.42 501.368 809.294 501.455ZM874.243 536.49C874.615 536.741 875.012 536.986 875.428 537.22C875.013 536.985 874.614 536.743 874.243 536.49ZM875.679 537.361C876.075 537.576 876.477 537.789 876.882 538C876.477 537.789 876.074 537.577 875.679 537.361ZM879.687 539.617C879.745 539.657 879.798 539.699 879.854 539.74C879.797 539.699 879.745 539.657 879.687 539.617ZM750.818 451.449C750.816 451.414 750.803 451.38 750.805 451.342C750.804 451.377 750.818 451.411 750.818 451.449ZM751.627 449.441C751.667 449.402 751.713 449.368 751.757 449.33C751.715 449.368 751.666 449.404 751.627 449.441ZM743.986 451.083C743.935 451.059 743.889 451.031 743.839 451.007C743.883 451.031 743.929 451.057 743.986 451.083ZM1131.92 727.542C1124.4 726.613 1123.76 722.812 1122.24 719.395C1129.98 719.967 1136.23 724.365 1131.92 727.542ZM1149.49 723.222C1145.23 722.212 1142.61 720.507 1143.68 717.264C1145.66 717.171 1146.37 716 1148.49 716.007C1155.46 716.484 1154.02 722.042 1149.49 723.223L1149.49 723.222ZM1115.2 707.096C1111.54 706.586 1109.93 705.232 1110.35 703.009C1114.01 703.521 1115.62 704.875 1115.2 707.096ZM1135.81 686.231C1127.24 684.74 1125.57 680.361 1125.39 675.345C1132.02 677.657 1134.28 681.783 1135.81 686.231ZM986.803 556.487C986.736 558.298 990.259 558.602 990.191 560.41C993.94 564.443 998.397 568.2 1003.48 571.611C1006.7 572.557 1006.57 574.898 1009.79 575.843C1013.13 579.54 1017.19 582.961 1021.88 586.024C1044.23 604.876 1067.72 623.248 1089.83 642.207L1091.27 642.363C1098 647.123 1104.06 652.232 1109.41 657.633C1114.45 663.914 1123.57 668.489 1123.49 676.913C1105.82 666.265 1095.82 652.398 1081.4 640.394C1077.65 636.36 1073.18 632.603 1068.09 629.194C1063.77 627.198 1062.52 623.912 1058.17 621.916C1054.85 618.214 1050.78 614.792 1046.09 611.731C1037.41 604.94 1029.38 597.88 1020.46 591.203L1020.69 590.345C1017.36 586.645 1013.3 583.22 1008.62 580.149C1007.32 580.181 1007.33 579.675 1007.39 579.126C1002.83 574.408 997.562 569.975 991.655 565.888C988.098 564.591 987.731 561.948 984.159 560.646C984.223 558.84 980.718 558.53 980.771 556.723C973.793 549.965 966.121 543.5 957.802 537.368C924.788 508.244 888.562 480.456 861.493 448.833C906.341 483.434 942.852 521.511 986.806 556.488L986.803 556.487ZM631.347 332.525C648.971 347.821 664.444 364.048 677.593 381.024C669.049 382.104 668.1 373.98 664.049 370.681C646.799 360.373 640.137 345.621 626.529 333.775C621.194 327.877 614.93 322.381 608.867 316.778C607.942 313.894 611.722 314.926 612.711 313.637L614.15 313.792C620.325 319.853 626.646 325.851 631.339 332.523" fill="white"/>
</svg>
