<svg width="655" height="411" viewBox="0 0 655 411" fill="none" xmlns="http://www.w3.org/2000/svg">
<path opacity="0.2" d="M935.103 6.31089C931.204 10.8016 918.738 8.10209 911.756 9.99029C916.393 11.0884 918.988 13.0548 917.317 16.8077C909.273 15.5896 910.242 14.5622 908.164 17.5952C903.934 17.6638 910.215 14.0326 906.468 12.9761C907.466 13.2584 904.916 16.2835 904.057 16.2632C901.433 16.1985 897.306 12.7747 891.746 12.2728C880.474 11.2452 869.21 18.3996 859.481 15.8948C863.789 18.1273 866.644 21.2725 867.506 24.7359C861.541 23.6289 859 25.3768 854.01 25.0647C850.625 22.5869 848.365 19.5833 847.467 16.3691C843.716 16.4148 841.054 17.3475 838.061 18.0122C846.294 19.8594 843.176 29.4791 853.772 25.9294C851.893 28.2439 855.184 28.3787 854.012 30.388C853.574 31.4286 853.031 32.3907 850.655 31.8122C849.873 33.3969 851.763 33.8777 851.173 35.4159C853.025 41.9671 852.473 47.3534 853.893 52.5787C851.037 52.6495 850.592 54.7448 846.201 53.5188C838.042 50.5498 843.002 35.7808 829.008 40.1291C832.836 42.9225 825.252 44.5723 823.757 48.4409C821.805 53.4437 824.096 58.6296 824.078 63.5575C819.089 63.1016 824.683 58.2179 819.699 57.7634C819.667 65.6805 826.504 74.7443 823.678 81.2693C817.916 74.7919 808.309 69.9152 806.724 61.6817C801.987 59.7581 798.555 61.7124 795.621 58.7087C796.675 63.8619 800.202 67.9766 802.181 72.742C801.956 73.2526 801.693 73.733 800.507 73.4461C793.568 70.2578 796.067 63.0993 782.622 62.6358C778.194 73.1452 793.089 79.5928 787.566 88.0329C774.83 79.9011 774.039 66.753 759.73 59.2775C764.507 71.2859 775.5 84.668 776.52 95.7176C757.667 88.3619 763.282 70.7415 743.624 63.7414C751.287 81.6442 768.721 95.4257 774.449 114.139C763.462 109.331 761.024 100.945 751.224 95.6441C749.56 98.891 758.633 99.9458 753.906 102.153C750.288 100.615 749.828 97.7616 743.3 97.4473C733.566 101.967 747.426 108.344 744.446 111.904C746.268 111.302 749.975 112.957 749.154 114.067C740.279 133.859 775.542 152.067 780.517 173.377C777.575 173.923 776.382 170.276 774.717 172.75C775.591 172.98 776.298 173.405 776.701 173.943C777.104 174.481 777.176 175.094 776.901 175.663L771.127 175.039C774.418 181.03 781.668 185.361 786.134 190.859C785.9 191.382 785.637 191.868 784.452 191.565C777.32 186.415 769.19 181.688 763.415 175.977C763.189 183.452 770.949 191.627 769.545 197.056C761.121 189.9 757.783 180.613 747.499 174.258C748.305 177.281 750.253 182.843 747.556 184.92C744.687 184.345 745.361 182.282 742.491 181.711C742.6 179.123 738.536 178.277 738.115 175.905C738.351 175.047 737.226 174.763 737.123 174.026C731.615 172.193 732.067 175.398 727.997 174.811C727.775 171.347 724.552 169.135 722.892 166.271C719.745 166.47 713.671 164.187 712.519 166.033L712.281 166.9L718.079 167.527C716.47 170.493 718.088 172.107 720.995 173.178C720.935 173.706 720.924 174.212 722.224 174.194C721.142 176.42 723.446 177.25 727.288 177.417C727.204 177.948 727.217 178.461 728.494 178.419C730.444 183.204 734.924 186.913 738.434 191.042C738.973 193.616 735.779 193.056 735.813 195.196C742.886 196.334 737.336 192.701 741.097 192.219L742.534 192.374C744.64 194.796 745.189 197.88 749.553 199.351C748.374 199.413 746.712 199.06 746.437 199.901C739.591 198.951 736.873 196.283 729.8 195.428C733.057 190.741 725.758 190.01 723.98 189.48C726.187 185.753 718.75 186.087 718.166 183.522C702.812 175.469 699.347 162.425 684.53 154.135C684.196 153.878 683.954 153.58 683.82 153.26C683.686 152.94 683.663 152.606 683.753 152.279C683.842 151.953 684.042 151.643 684.339 151.37C684.636 151.096 685.023 150.866 685.474 150.694C680.351 148.86 682.074 152.77 677.787 151.635C677.787 148.587 676.359 146.134 675.578 143.407C665.847 140.303 666.226 133.209 656.457 126.244C655.484 127.676 658.019 128.69 655.745 128.836C655.196 127.545 650.23 128.114 650.44 126.492C650.425 125.21 648.461 124.781 648.255 123.58C645.575 123.105 644.815 124.212 642.236 123.834C641.059 125.843 644.372 125.984 642.488 128.292L646.832 128.761C651.912 135.279 660.302 140.401 662.345 148.194C661.492 149.142 660.245 149.926 658.737 150.464C660.524 147.708 656.133 148.76 654.636 149.133C649.744 142.069 643.094 140.331 634.817 134.571C635.057 133.624 635.818 132.759 636.97 132.128C635.611 130.675 636.78 128.14 632.141 128.062C628.419 126.831 631.914 122.56 624.65 122.808C626.554 118.318 621.384 119.678 625.1 115.764L619.291 115.136C620.38 118.597 616.801 120.605 618.144 124.774C620.914 125.338 621.322 123.912 622.954 123.522C622.147 126.136 623.042 128.052 625.875 129.159C631.782 137.891 637.179 138.353 637.027 148.118C641.03 148.418 644.539 148.772 640.899 150.308C634.647 150.39 635.823 147.364 633.164 145.928C632.679 146.919 632.74 148.413 631.017 148.351C628.725 144.74 627.548 140.658 623.509 137.781L623.982 136.059C622.177 135.969 620.47 135.939 620.61 137.468C615.493 138.193 616.377 143.577 618.243 146.088C621.187 149.357 621.438 149.22 620.681 153.458L620.445 154.316C616.295 156.369 614.307 153.127 612.243 151.658C614.309 153.119 607.7 144.966 603.037 141.785C601.805 138.992 598.65 137.01 594.323 135.506L593.608 138.107C589.212 135.12 588.768 130.477 582.957 128.077C583.027 127.033 583.885 125.648 582.253 125.324C581.668 128.302 577.216 124.58 574.279 127.139C574.333 126.094 572.26 125.949 570.177 125.808L570.654 124.072C564.189 121.196 562.72 116.216 559.043 112.171C559.62 118.275 564.151 122.737 564.893 128.787C563.113 128.7 561.406 128.669 561.543 130.196C565.656 129.999 563.988 132.231 566.848 132.54C569.72 133.115 570.23 134.693 571.908 135.764C573.845 144.227 576.035 147.976 583.111 154.732C581.44 157.211 580.233 153.565 577.313 154.105C571.856 153.326 572.801 149.884 566.685 149.398C564.813 149.253 564.383 150.296 562.114 149.787C557.262 149.004 558.421 141.732 553.414 143.532C554.492 143.835 554.884 144.434 554.383 145.41C554.142 146.981 552.386 147.273 549.573 146.662C547.395 146.05 549.082 143.823 544.266 144.317C542.801 144.159 542.347 144.824 541.131 144.867C537.576 143.811 536.863 141.568 538.453 138.354C537.375 138.051 535.598 138.036 535.79 137.183C532.207 137.161 533.09 135.28 528.806 135.54C531.147 139.386 522.508 141.111 525.965 145.884C524.788 145.967 523.103 145.607 522.833 146.433C519.487 146.571 521.213 144.577 518.965 144.244C514.898 144.853 511.315 146.357 508.87 148.484L513.207 148.953C514.281 149.258 514.696 149.86 514.17 150.833C508.124 151.279 504.83 146.683 501.397 148.565C503.312 148.787 502.314 150.218 503.823 150.598C497.646 156.43 515.361 162.784 508.47 166.198C520.583 168.232 519.03 175.995 522.035 181.857C521.21 183.995 523.522 184.81 525.425 185.783C525.188 186.645 526.307 186.939 526.39 187.663C525.497 187.625 524.648 187.602 524.715 188.366C519.35 185.142 513.65 178.457 515.009 174.894C511.686 174.245 509.941 172.936 505.13 172.941C506.253 167.291 498.689 165.427 495.211 165.651C498.921 161.995 491.885 155.398 482.656 157.187C482.86 160.508 486.187 164.343 479.058 164.795C465.896 158.617 468.801 145.695 452.917 140.665C447.575 150.096 466.698 159.767 463.163 168.408C459.003 164.033 454.147 159.934 448.667 156.174C448.865 159.279 442.768 158.737 440.976 157.13C438.993 162.783 445.209 165.011 443.199 170.679C440.561 169.569 437.093 167.126 433.321 168.729C436.658 176.438 427.339 184.877 432.94 191.776C431.188 192.765 430.706 194.833 427.653 194.752C398.887 165.705 374.384 133.733 351.58 103.078C341.288 89.2367 333.975 73.6421 320.784 63.3505C312.064 64.1354 305.12 66.4262 295.996 66.8796C289.988 80.5545 297.601 84.1111 306.246 94.6221C339.327 134.859 366.569 178.445 394.519 217.809C495.494 360.048 605.904 496.001 739.503 620.875C702.825 596.072 667.972 570.508 635.514 543.944C626.616 536.241 619.216 527.919 607.481 521.387C606.62 521.236 605.808 521.06 606.254 520.366C602.116 515.98 597.254 511.879 591.748 508.131C571.589 490.158 549.333 473.032 530.555 454.468C526.613 452.56 524.754 449.774 522.091 447.352L522.332 446.474C519.242 444.786 516.759 442.706 515.048 440.371C511.947 439.379 511.465 437.308 510.476 435.429C489.058 414.762 468.215 394.32 448.731 372.829C428.884 350.949 416.056 327.317 399.013 304.418C364.549 258.394 335.817 210.765 313.074 161.959C313.161 159.915 317.505 161.447 318.122 159.827C303.323 158.667 311.049 148.049 298.049 146.12C290.298 152.605 305.504 155.586 302.461 162.582C296.877 159.624 299.397 164.287 294.535 164.385C287.409 155.926 283.364 146.192 269.852 140.413C270.625 135.25 263.869 133.258 260.882 129.681C259.379 127.25 262.069 123.068 253.626 123.563C250.93 131.427 260.74 137.324 251.077 143.704L249.622 143.547C249.308 144.693 246.857 144.062 246.263 144.971C250.07 146.269 245.294 148.966 243.617 149.116C237.193 150.009 234.299 142.863 232.973 139.087C227.974 137.824 225.424 140.282 222.837 137.992C223.623 143.263 228.193 146.941 227.718 152.735C220.464 152.575 223.3 148.185 216.636 149.764C217.292 153.304 218.755 156.504 216.435 161.277C211.323 160.888 212.481 157.845 208.711 156.883C208.413 152.635 201.214 150.697 198.06 146.853C195.343 143.524 200.31 136.938 190.072 138.016C187.195 144.565 194.816 146.693 195.196 151.881C193.554 151.438 190.685 147.82 188.197 150.236C191.55 155.685 194.877 161.174 198.641 166.462C203.368 168.485 193.445 167.688 197.695 169.908C198.386 170.516 199.95 174.366 196.509 174.226C194.333 172.844 191.304 171.82 191.898 169.282C188.343 168.765 192.283 166.313 192.844 165.836C185.12 164.476 182.955 158.52 187.015 154.539C183.437 154.27 180.007 153.929 178.574 152.744C177.608 156.724 181.237 158.752 178.629 163.399L174.308 162.933C170.9 171.508 171.529 180.518 176.12 188.873C183.106 189.005 179.294 193.649 181.697 195.695C181.932 194.838 184.536 194.887 184.576 196.007C187.067 198.53 186.777 202.22 189.677 204.554C191.486 205.4 196.188 208.85 191.154 210.044C193.429 216.466 203.2 226.341 206.693 234.799C206.196 235.443 205.209 235.67 203.581 235.351C201.934 238.832 208.931 238.69 206.024 242.716C208.676 243.213 209.456 242.087 212.034 242.482C219.787 248.898 225.92 255.987 224.902 266.078C229.713 265.608 228.851 266.085 231.903 267.716C230.925 268.151 227.38 271.443 230.719 272.026C232.536 270.578 235.209 275.165 237.009 276.264C231.239 282.017 247.784 283.557 242.135 290.126L245.014 290.437C244.795 291.545 246.541 291.835 245.769 293.18C244.588 293.252 242.902 292.897 242.629 293.738C243.702 294.043 244.122 294.636 243.596 295.614C241.775 295.36 241.892 294.3 239.492 294.288C233.99 294.302 238.005 290.32 234.899 289.344C235.136 288.48 236.352 288.439 236.813 287.782C234.693 284.861 233.333 281.603 230.269 279.076C229.723 282.625 229.211 280.968 225.455 280.335C225.512 284.19 220.732 285.33 225.026 287.388C227.703 288.044 225.234 290.859 230.091 290.596C230.219 291.308 229.661 292.312 231.053 292.487C231.009 293.514 230.129 294.91 231.808 295.229L231.571 296.091C227.291 296.354 228.152 294.469 224.569 294.447C221.475 297.266 229.332 295.5 228.198 297.498C227.814 298.589 226.011 298.499 226.052 299.926C221.153 297.902 219.691 294.459 218.042 291.082C217.538 289.256 214.191 288.63 213.193 286.999C212.706 284.634 211.506 278.606 205.94 280.881C206.572 283.668 201.28 286.253 208.167 289.117C209.241 289.433 209.655 290.034 209.132 291.009C212.921 292.057 212.523 289.604 215.406 289.9L214.929 291.635C216.959 304.251 225.882 313.991 230.981 325.324C230.741 326.198 231.869 326.478 231.973 327.203C228.03 326.704 228.657 328.326 226.176 326.576C218.365 320.372 217.985 310.639 207.76 306.83C210.412 303.437 205.66 303.144 206.541 300.491L203.644 300.178C203.194 298.839 206.54 295.9 203.364 295.705C203.933 292.002 197.127 295.61 196.623 293.201C198.133 287.859 192.366 279.3 185.189 275.099L185.427 274.234C181.386 274.411 183.12 272.156 181.799 271.183C178.444 268.453 184.021 269.494 184.448 267.029C180.609 266.614 176.096 266.459 174.544 265.07C169.059 257.994 168.28 254.033 158.341 248.222C158.285 253.589 162.092 257.331 163.464 262.102C164.083 264.376 167.229 265.601 169.497 267.185C162.96 268.001 171.734 269.213 167.131 270.486C165.952 275.563 177.768 275.228 171.266 282.471C176.606 281.494 176.572 283.336 177.777 285.836C171.827 282.941 173.315 287.39 173.709 289.843C156.334 278.057 153.879 260.02 142.666 245.64C141.245 243.7 138.875 242.155 138.31 239.851L139.747 240.006C137.134 236.848 135.874 243.735 130.362 241.652C131.124 240.052 129.257 239.572 129.868 238.056C130.509 238.613 131.473 238.991 132.554 239.107C133.634 239.224 134.744 239.071 135.645 238.68L137.069 233.497C135.627 233.341 135.149 234.004 133.933 234.047C128.605 235.3 132.445 235.715 132.747 238.367C131.237 236.981 126.254 236.443 124.069 237.429L123.833 238.287C127.304 239.418 131.403 244.207 127.738 245.817C123.604 243.973 123.541 240.449 122.63 237.276L119.731 236.963C120.507 235.359 118.627 234.88 119.242 233.344C115.812 230.579 118.691 231.078 120.659 228.185C119.319 225.174 110.5 225.311 113.861 220.343C111.005 220.41 109.719 221.815 106.173 221.283C104.19 220.837 105.042 219.215 104.002 218.389C103.367 214.137 98.4912 219.845 95.5614 216.594C94.2931 213.549 95.6415 209.421 93.8324 206.623C93.7371 204.628 86.1595 205.785 85.6269 203.966C81.9972 210.317 87.023 213.038 86.153 218.237C81.482 221.259 79.6954 220.326 74.6206 222.305C71.5391 221.321 75.3831 217.424 75.0471 215.261C75.0224 214.259 73.8301 213.749 72.6447 213.215C72.1246 214.571 72.0091 216.23 69.0289 215.5C70.6612 212.785 69.1527 211.389 69.2506 209.305C69.973 206.2 68.3662 204.081 68.5078 201.229C54.9386 199.796 57.1983 191.727 51.5488 186.975C45.2722 194.959 57.1481 201.922 55.5279 210.481C52.4779 211.098 50.9285 212.993 48.5411 214.174C52.0923 221.489 55.0276 228.915 57.3347 236.423C52.6691 236.052 52.1621 239.148 47.709 238.943C46.4116 232.873 39.4851 229.165 40.3912 222.175C36.7155 221.426 32.5701 220.863 30.7535 219.356L29.2888 219.198C29.8875 223.9 39.125 235.607 26.0169 236.601C26.0465 222.338 12.6275 213.739 5.61453 202.431C-5.204 208.427 13.3996 216.858 6.93045 224.779C5.32874 226.694 2.18125 225.719 1.64825 227.751C0.252924 232.904 1.71852 237.8 10.3612 239.348C12.6727 239.523 12.0893 237.266 15.1744 238.09C17.7743 239.808 17.3469 242.774 15.94 246.169C13.2374 248.895 17.5254 252.527 14.0463 253.064C9.00341 255.079 9.56598 250.462 2.70638 250.958C-3.60616 255.637 2.90583 260.86 4.95059 264.508C2.96536 267.374 6.19059 268.059 4.73346 270.704C101.486 424.403 206.872 574.489 355.642 706.37C365.144 712.806 371.425 720.602 379.594 727.604C392.063 737.119 403.572 747.036 414.648 757.144C415.53 759.576 419.612 760.656 420.486 763.088C424.038 764.402 424.405 767.045 427.981 768.349C429.267 770.338 431.344 772.088 434.014 773.431C439.111 776.838 443.576 780.597 447.321 784.636C448.607 786.633 450.691 788.389 453.371 789.736C458.459 793.143 462.918 796.899 466.663 800.933C484.326 817.944 506.722 832.96 523.051 850.536C528.545 854.284 533.407 858.378 537.56 862.752C555.238 875.174 570.104 888.763 589.766 900.362C594.211 901.263 593.75 898.06 598.916 899.582C606.023 910.533 631.006 913.798 647.937 921.73C652.497 923.894 654.135 927.386 658.069 928.159C662.839 929.095 667.452 927.297 673.25 927.14C690.082 926.69 709.807 928.516 721.642 924.372C725.16 923.158 725.687 919.189 730.304 919.98C739.941 927.879 732.597 945.8 752.595 947.251C757.608 947.62 762.957 944.258 768.498 943.65C777.864 942.601 790.069 945.866 789.659 937.043C790.043 934.093 786.148 932.929 785.535 930.395C803.125 932.821 804.162 921.303 814.365 917.526L827.385 918.933C836.32 933.148 876.841 929.812 869.975 910.226C876.766 909.908 884.35 910.282 888.536 907.782C894.95 897.964 879.583 897.298 876.651 891.401C876.728 888.617 879.406 888.081 882.17 887.566C888.253 889.136 893.698 891.541 898.107 894.603C923.269 901.027 927.169 885.801 922.596 875.948C942.141 874.162 931.605 853.555 950.168 851.402C952.184 853.617 949.096 857.972 950.703 860.339C960.075 863.821 980.472 868.135 988.534 863.543C997.976 870.765 1011.83 876.151 1018.51 884.539C1004.79 900.215 1046.83 898.392 1063.62 899.174C1061.55 906.148 1067.45 909.776 1071.4 914.229C1064.51 914.516 1057.34 917.516 1050.44 914.624C1030.21 915.721 1022.66 936.43 1048.15 939.241C1048.35 940.933 1044.77 944.22 1049.86 943.857C1064.17 936.244 1097.17 939.357 1093.61 920.171C1090.67 916.57 1081.73 915.478 1077.9 912.254C1083.08 909.953 1083.67 902.811 1083.15 898.624C1087.66 895.088 1093.88 893.321 1096.37 888.502C1101.4 878.613 1092.51 871.328 1083.23 865.778C1084.59 862.675 1089.91 862.91 1089.71 858.489C1089.34 856.606 1087.42 855.383 1086.55 853.702C1074.61 850.73 1072.49 856.032 1064.88 856.689C1040.92 842.842 1014.3 830.101 1004.69 810.242C972.244 795.346 958.683 772.565 933.59 754.608C932.637 752.212 931.227 749.995 932.822 746.536C930.927 742.492 923.567 740.751 915.429 739.337C913.732 737.001 911.269 734.917 908.199 733.219C908.434 732.364 907.293 732.064 907.206 731.343C903.463 727.303 899 723.544 893.903 720.136C887.6 716.422 884.254 711.47 877.948 707.765C862.016 693.064 846.457 678.251 830.515 663.566C830.4 660.562 834.591 655.767 831.683 653.926C829.631 649.579 822.621 648.14 813.834 648.453C722.192 565.061 633.739 480.363 560.365 389.32C604.918 423.269 643.216 459.855 686.364 494.394C693.75 501.494 701.837 508.299 710.577 514.767C717.394 522.329 725.412 529.441 734.508 535.992C734.933 538.105 738.678 538.81 739.127 540.927C743.268 545.312 748.131 549.412 753.636 553.16C825.709 615.859 901.451 678.647 983.369 736.006C993.667 743.235 1005.99 750.031 1012.86 758.735C996.932 759.658 992.436 773.602 1008.12 775.981C1018.37 777.522 1019.22 772.659 1028.83 771.111C1036.16 776.159 1048.63 779.078 1051.54 785.992C1044.41 788.823 1036.93 791.37 1037.15 800.414C1043.34 803.674 1044.88 808.865 1056.94 809.66C1063.69 807.905 1064.64 801.265 1074.02 801.744C1082.36 808.149 1093.4 813.455 1100.13 820.542C1073.81 828.919 1097.47 851.006 1126.01 845.528C1132.52 848.581 1140.33 850.35 1148.45 850.612C1152.51 857.026 1152.59 865.287 1168.26 865.196C1177.45 865.137 1197.28 853.46 1198.3 848.008C1198.52 846.925 1196.58 842.168 1194.66 839.625C1188.25 831.202 1171.3 819.037 1159.07 806.484C1141.63 788.584 1121.17 775.357 1122.48 760.795C1121.71 762.282 1119.46 762.502 1116.23 761.906C1115.52 759.161 1112.16 757.5 1114.02 753.678C1125.8 756.62 1142.08 757.666 1142.02 765.581C1139.98 768.802 1132.38 767.358 1127.82 768.477C1141.44 773.234 1144.86 766.803 1152.85 764.075C1169.34 766.195 1183.97 767.963 1200.07 765.636C1204 762.525 1202.55 758.315 1203.15 754.43C1214.25 746.781 1235.57 742.095 1236.76 729.652C1236.38 732.503 1233.91 733.617 1229.8 733.333C1226.43 731.439 1223.33 729.433 1224.46 725.648C1227.62 724.552 1236.98 725.478 1237.24 727.917C1236.38 725.498 1236.95 722.45 1238.17 719.138C1235.09 718.149 1238.93 714.251 1238.62 712.095C1237.55 711.769 1235.77 711.757 1235.96 710.904C1228.08 705.737 1218.31 694.386 1227.66 686.937C1219.56 676.337 1208.73 666.902 1198.6 657.157L1197.16 657.002C1191.65 653.26 1186.79 649.165 1182.65 644.784C1155.95 620.877 1125.19 598.687 1099.19 574.504C1090.62 566.384 1081.34 558.567 1071.4 551.086C1067.24 546.706 1062.38 542.606 1056.89 538.852C1022.67 510.726 989.324 482.253 960.083 452.046C964.863 449.336 973.865 450.177 981.522 449.916C986.003 446.883 984.368 440.878 985.072 436.991C986.518 435.385 993.535 438.454 993.022 435.172C988.797 434.906 985.74 434.169 984.818 432.515C984.488 428.714 988.36 428.434 992.034 427.974C993.83 429.491 993.624 431.881 996.607 432.899C1002.85 426.748 1023.23 422.623 1018.22 413.935C1018.02 416.25 1015.45 416.538 1011.72 415.891C1008.65 414.432 1006.57 412.303 1005.9 409.926C1009.57 407.738 1014.68 409.769 1018.94 411.335C1019.46 404.883 1021.96 398.469 1022.21 393.931C1021.68 394.906 1019.65 394.629 1017.63 394.325C1010.52 379.26 998.186 362.305 996.209 347.619C1001.33 349.538 1000.77 353.849 1005.89 355.772C1007.7 348.394 1005.09 342.882 1000.25 338.288C1006.41 342.851 1026.73 348.691 1019.85 353.732C1029.67 361.914 1049.75 364.343 1066.89 366.804C1067.28 362.055 1061.25 360.008 1061.07 355.509C1066.32 356.095 1066.88 358.669 1070.23 360.065C1071.51 358.615 1066.98 356.022 1071.42 355.744C1081.51 358.637 1087.26 363.342 1093.4 367.895C1095.2 364.631 1087.99 360.373 1094.06 359.978C1098.85 365.058 1111.81 369.494 1125.7 369.597C1119.06 362.968 1111.24 356.848 1104.16 350.401C1116.47 355.044 1122 358.516 1129.76 365.606C1132.21 361.522 1126.36 360.938 1124.21 358.786C1128.44 358.298 1128.46 352.979 1123.69 355.182C1124.48 355.257 1125.12 356.05 1123.45 356.046C1116.5 350.763 1110.26 343.039 1114.7 339.115C1122.16 342.598 1129.43 346.159 1137.14 349.535C1135.56 346.613 1131.81 340.616 1135.89 337.863C1140.26 340.978 1138.68 338.746 1140.46 337.45C1143.83 338.137 1147.65 342.531 1151.58 340.439C1147.63 338.72 1154.24 337.152 1158.05 338.466C1155.75 333.594 1147.81 331.084 1143.3 327.105C1143.8 326.479 1144.8 326.238 1146.43 326.556L1147.38 323.116L1148.82 323.271C1146.19 325.51 1150 328.729 1152.47 326.326C1150.94 325.951 1149.38 324.52 1151.5 324.451C1154.36 325.018 1153.7 327.082 1156.57 327.651C1157.01 331.273 1161.56 333.192 1164.79 335.646C1164.93 336.343 1164.36 337.345 1165.78 337.524C1166.32 338.218 1166.62 338.974 1166.66 339.745C1166.7 340.516 1166.49 341.284 1166.03 341.999L1171.81 342.623C1172.04 340.993 1171.64 339.645 1169.88 338.855C1169.93 337.961 1176.57 337.791 1172.03 336.429C1169.35 335.007 1165.06 334.269 1165.98 331.327L1166.68 328.744L1176.82 329.839C1178.38 329.995 1179.82 330.462 1180.93 331.171L1180.69 332.034C1185.29 331.919 1183.62 331.738 1187.9 332.813C1188 331.501 1189.3 329.692 1187.41 329.212C1186.98 329.749 1186.26 330.171 1185.38 330.4C1184.5 330.63 1183.51 330.653 1182.6 330.464C1179.34 326.494 1171.08 320.562 1172.89 316.995C1178.03 319.669 1180.12 323.63 1185.22 326.315C1178.43 318.986 1177.82 309.07 1174.5 300.298C1177.37 300.62 1175.69 302.844 1179.82 302.644C1179.36 299.02 1174.82 297.101 1171.58 294.646C1144.96 266.151 1107.16 242.337 1083.96 212.382C1083.91 211.28 1083.5 210.197 1082.75 209.199C1082.01 208.2 1080.95 207.308 1079.63 206.577C1075.58 200.386 1073.02 193.565 1065.08 189.037C1063.63 191.672 1068.98 191.465 1066.54 194.514C1061.35 188.559 1055.37 182.932 1052.27 176.098C1053.32 176.421 1055.1 176.436 1054.91 177.274C1055.81 178.676 1056.33 180.244 1059.99 180.498C1062.19 179.555 1062.78 177.482 1059.48 176.877C1056.61 174.274 1051.66 172.533 1049.56 169.604C1063.09 174.323 1085.35 184.676 1090.87 192.71C1118.58 201.707 1143.28 215.973 1177.24 219.798C1180.86 222.094 1183.36 224.861 1192.23 224.962C1192.72 222.461 1194.57 219.403 1192.66 217.901C1187.02 216.683 1184.17 217.847 1179.4 217.356C1178.78 215.082 1176.37 213.544 1176.72 210.865C1179.6 211.16 1179.2 208.708 1182.99 209.767C1192.01 217.241 1217.1 213.266 1226.15 220.637C1229.6 216.139 1221.96 216.287 1222.27 213.111C1223.18 213.294 1224.16 213.268 1225.04 213.039C1225.92 212.809 1226.65 212.392 1227.08 211.86C1222.75 210.114 1219.85 207.765 1215.25 206.149C1216.43 204.215 1222.27 204.524 1219.31 202.143C1208.15 196.663 1190.38 193.946 1183.35 186.718C1186.7 184.348 1190.96 189.328 1193.72 186.95C1178.34 179.159 1156.96 173.883 1141.33 166.194C1141.86 165.218 1143.86 165.509 1145.9 165.803C1150.31 167.378 1147.78 163.124 1152.16 164.704L1151.45 167.287C1191.57 178.684 1219.89 195.053 1258.12 207.217C1237.8 191.595 1198.36 183.982 1174.59 169.787C1177.74 167.541 1179.31 172.315 1184.47 171.743C1185.33 168.851 1178.26 169.268 1176.76 167.362C1174.44 166.284 1168.98 166.552 1170.21 163.993C1191.83 164.807 1204.27 179.561 1223.55 181.296C1219.19 180.214 1221.83 178.406 1224.5 177.839C1217.99 177.555 1211.09 170.778 1208.78 169.939C1209.55 170.208 1207.36 171.831 1205.43 171.348C1197.1 169.243 1184.66 163.493 1183.7 158.351C1186.39 158.102 1189.01 161.526 1190.91 159.13C1185.94 157.388 1176.27 154.44 1179.55 151.684C1185.17 155.691 1198.62 156.399 1198.88 162.65C1198.07 162.3 1193.9 159.905 1193.08 162.024C1198.43 163.354 1201.01 165.824 1206.61 167.03C1208.1 168.005 1211.71 171.912 1214.81 169.703C1210.14 169.619 1211.63 166.965 1208.31 166.325C1208.4 164.257 1201.58 165.073 1203.45 162.256C1223.87 167.688 1238.07 179.772 1260.64 181.746C1256.36 179.471 1248.35 178.763 1247.6 175.019C1257.41 178.636 1266.5 176.376 1273.14 174.219C1271.39 173.944 1269.79 173.596 1270.71 172.185C1271.89 172.12 1272.6 171.653 1272.63 170.619C1275.31 170.395 1280.85 172.581 1281.54 170.694C1283 170.852 1283.46 170.188 1284.67 170.146L1285.86 165.827C1283.84 165.142 1282.56 164.166 1280.56 163.483C1280.48 161.485 1272.89 162.637 1272.35 160.823C1272.1 156.349 1264.42 154.996 1261.47 151.653C1264 147.03 1260.33 144.993 1254.68 143.816C1253.53 146.845 1261 146.254 1259.04 149.618C1251.31 150.818 1242.22 146.695 1239.98 143.112C1232.58 143.158 1224.5 136.907 1218.72 133.725C1222.69 133.179 1224.92 137.085 1227.42 134.665C1220.12 133.309 1218.19 128.306 1212.21 130.348C1215.4 129.922 1218.1 133.298 1214.38 133.256C1189.84 123.457 1167.67 112.661 1145.58 101.848C1146.47 101.884 1147.33 101.904 1147.26 101.143C1161.43 107.399 1175.61 113.661 1189.78 119.928C1196.29 122.8 1204.47 129.002 1212.68 128.621C1206.79 126.833 1201.41 124.451 1196.75 121.57L1199.63 121.881C1203.6 121.353 1205.84 125.255 1208.33 122.82C1203.61 122.268 1203.47 119.783 1197.23 119.847C1197.09 119.135 1196.29 118.718 1194.59 118.675C1192.91 118.362 1190.42 118.384 1190.49 117.344C1190.97 114.347 1187.2 113.122 1182.97 112.101C1182.48 112.729 1182.49 113.793 1181.06 113.669C1170.82 109.815 1160.82 105.874 1153.3 100.903C1158.07 99.0814 1149.47 95.4624 1145.33 97.368C1138.33 95.9877 1135.5 92.8478 1129.17 91.1905C1121.04 86.461 1110.46 82.7572 1101.4 78.4301C1098.22 76.3748 1094.74 74.5098 1091.01 72.8591C1086.14 70.8057 1077.4 66.3762 1071.71 67.2256C1077.88 69.2151 1084.64 70.9505 1089.34 73.563C1088.77 74.7058 1096.21 76.0796 1091.5 76.4711C1076.85 75.5116 1064.87 71.0222 1062.8 67.1512C1053.73 66.0396 1044.94 63.4932 1040.59 61.1928C1008.76 44.4113 983.398 6.56619 932.151 0.647894C935.054 1.71737 936.675 3.33358 935.065 6.29837L935.103 6.31089ZM179.374 166.152C182.297 167.226 183.92 168.827 182.292 171.788C179.396 170.74 177.76 169.119 179.374 166.152ZM104.853 247.775C107.919 249.284 107.926 252.073 108.973 254.436C105.217 253.265 102.527 249.125 104.853 247.775ZM15.0493 260.26C20.2192 260.211 19.3899 263.853 16.7424 264.89C13.994 263.944 11.5529 261.66 15.0493 260.26ZM47.7118 293.101C51.4498 296.832 53.8518 301.029 54.7522 305.4C50.3746 302.167 48.2949 297.945 46.0375 293.809C43.1385 289.672 38.9188 286.109 39.2145 280.645C46.0813 283.1 45.4664 288.701 47.7118 293.101ZM491.543 813.385C482.803 806.922 474.723 800.119 467.353 793.016C463.459 790.636 460.192 787.884 457.673 784.862C453.385 782.145 449.722 779.066 446.788 775.715C440.879 771.623 435.611 767.184 431.055 762.46C424.75 757.738 418.496 752.981 414.375 747.349C410.497 744.961 407.231 742.211 404.695 739.196C400.408 736.472 396.746 733.387 393.814 730.031C382.38 721.858 373.198 712.75 363.828 703.698C243.982 604.45 160.258 485.016 76.5019 367.24C65.1456 351.282 52.7185 335.465 42.0435 319.125C31.5417 303.01 19.6092 286.099 18.6886 268.652C23.8963 269.004 25.913 270.704 24.7385 273.752C58.4626 331.056 98.1608 385.87 138.292 440.495C139.843 443.565 142.046 446.49 144.84 449.192C144.559 449.757 144.625 450.367 145.026 450.903C145.427 451.439 146.133 451.862 147.006 452.087C150.131 458.221 154.533 464.068 160.098 469.479C161.155 472.343 162.191 475.216 165.438 477.163C167.921 481.969 170.445 486.757 175.13 490.652C176.044 493.864 178.304 496.865 181.677 499.349C185.085 499.21 180.294 497.804 183.829 496.906C196.719 511.599 207.281 527.253 220.656 541.734C224.882 547.594 229.214 553.409 235.441 558.413C231.469 552.463 228.865 545.929 222.348 541.029C203.915 512.128 180.96 485.148 163.883 455.694C164.651 453.508 167.358 452.961 169.406 451.844C170.817 452.022 170.243 453.024 170.394 453.737C170.07 456.139 173.928 456.821 176.663 457.956L175.716 461.402C178.097 461.278 177.712 458.828 181.988 460.309C182.494 459.327 182.074 458.733 180.997 458.425C178.462 456.396 183.083 456.621 184.84 455.299C181.714 453.623 175.42 450.59 177.826 448.322C175.45 447.727 174.909 448.688 174.452 449.728L173.015 449.573C173.25 448.002 175.288 447.941 175.398 446.283C172.58 445.677 170.825 445.963 170.588 447.541C165.696 446.34 172.387 443.33 167.91 441.033L165.042 440.723C166.625 438.012 165.774 436.339 163.544 435.226C166.138 433.908 157.945 430.912 155.339 432.567C153.106 435.551 161.358 434.117 161.889 435.936L161.65 436.808C157.863 437.172 154.801 438.13 154.432 441.347C148.69 431.293 141.346 421.913 137.434 411.103C135.93 410.48 134.728 409.612 133.956 408.591C133.184 407.569 132.873 406.435 133.057 405.311C130.388 404.309 128.678 401.73 131.365 400.681C135.432 400.74 131.816 404.042 134.736 404.588L134.494 405.466C137.866 406.339 136.837 409.06 137.436 411.103C139.369 412.82 145.283 412.876 145.17 415.483C143.673 417.634 144.873 418.655 148.771 418.547L147.353 423.71C152.333 423.332 151.019 421.868 154.592 424.492C155.714 422.756 154.218 422.097 154.073 420.891C159.25 420.029 155.627 418.375 157.196 415.01C151.881 413.008 155.672 418.679 151.906 417.998C150.186 416.941 150.827 414.888 148.517 414.072C150.384 410.49 141.173 411.566 144.38 407.406L145.845 407.564C150.395 408.581 152.716 407.711 156.215 407.814L157.626 407.967C156.164 410.103 157.361 411.121 161.256 411.018C159.809 413.649 163.501 414.729 159.838 416.18C164.465 416.62 161.594 418.62 167.802 419.715C167.958 416.099 162.294 414.921 162.717 411.177C159.472 410.488 162.38 407.243 157.867 407.09C158.33 405.892 158.791 404.677 157.164 404.358C155.413 402.277 152.808 400.571 151.325 398.393C151.851 397.42 151.455 396.836 150.38 396.519C149.992 394.631 148.1 393.407 147.202 391.745C146.765 390.895 146.358 390.052 144.783 389.696C142.891 383.125 136.785 378.309 134.825 371.761C137.8 372.491 137.918 370.817 138.437 369.477C132.67 370.059 131.897 364.671 135.517 363.848C135.33 359.597 133.205 356.157 131.124 352.716C127.259 351.532 129.293 347.888 127.001 346.053C125.651 344.57 123.41 343.503 123.85 341.265C129.587 341.411 126.205 345.359 129.885 346.364C130.163 347.701 131.831 346.226 134.223 346.833C132.795 349.28 140.272 351.848 135.463 353.185L134.751 355.776C137.124 356.355 137.67 355.393 138.122 354.369C140.684 356.3 142.836 357.231 139.582 359.846C143.329 362.458 152.735 365.582 150.972 372.625C154.296 371.329 162.854 370.658 159.851 367.364L162.748 367.677C160.007 372.427 172.296 373.957 167.619 377.083C166.612 376.367 164.025 375.315 163.278 376.614C160.865 375.704 163.501 375.026 163.987 374.031C157.95 375.604 159.299 371.87 155.314 373.094C156.845 381.895 170.008 394.185 176.189 405.533C176.456 407.524 173.074 406.458 172.577 407.802C173.332 410.382 176.78 406.963 178.14 409.288C179.02 411.724 177.763 415.049 183.935 415.249C185.057 415.545 185.139 416.267 186.6 416.425C188.806 419.567 185.939 424.837 194.581 425.276C191.023 427.985 193.263 429.597 197.5 430.922C202.972 429.773 196.693 427.292 197.48 425.589L197.716 424.727C200.096 424.984 201.312 423.444 204.445 421.895C208.123 423.659 203.891 428.751 211.463 428.871C213.839 441.481 231.072 450.985 237.167 465.39C232.67 467.681 240.469 468.548 235.509 471.428C239.909 472.993 237.399 468.757 241.783 470.319L243.223 470.474C248.617 478.904 253.97 487.328 261.889 494.694C258.185 495.05 254.662 500.988 263.348 500.187L264.813 500.345C274.229 510.632 282.288 521.487 290.263 532.386C291.68 531.944 293.289 531.807 294.843 531.996C293.719 534.91 289.353 534.062 293.66 536.301C291.343 536.123 288.239 535.294 287.643 536.539C286.968 537.58 284.524 537.099 284.742 536.225C279.952 533.655 282.804 527.887 273.835 527.067C280.557 531.682 269.613 531.971 274.635 535.133C275.046 537.911 276.753 538.206 281.378 537.633C280.922 538.35 280.711 539.119 280.759 539.89C280.807 540.662 281.112 541.418 281.656 542.11C283.93 542.598 284.364 541.555 286.23 541.716L292.011 542.341C291.909 541.372 289.289 541.449 289.582 540.306C294.364 542.202 291.263 537.464 294.633 538.177C292.808 540.904 297.146 539.815 297.532 538.49C300.304 538.88 294.105 541.589 299.483 542.26C300.22 545.511 306.303 546.512 306.26 550.099L306.023 550.961C302.271 552.601 300.473 550.056 295.889 549.866C298.274 546.577 292.286 546.801 294.668 543.516C290.051 543.742 290.541 545.565 285.756 543.436C285.343 546.663 288.565 548.365 293.01 549.555C288.378 551.409 293.223 552.688 293.031 554.878C297.428 556.452 294.901 552.212 299.282 553.776C298.778 554.753 299.193 555.351 300.273 555.66C299.789 556.331 298.573 556.36 298.332 557.238C299.986 557.542 300.977 557.313 301.467 556.688C304.052 558.146 300.105 562.336 307.524 561.775C307.403 560.805 304.803 560.883 305.095 559.739L305.805 557.157C307.304 556.604 308.549 555.817 309.42 554.872L312.299 555.183C311.839 556.395 311.397 557.602 313.042 557.939C315.226 557.102 315.414 557.846 317.383 558.408L316.437 561.85C316.466 563.296 314.653 563.185 314.263 564.274C314.099 567.995 322.463 569.29 317.926 572.666C320.481 573.057 321.258 571.936 323.937 572.428C324.881 570.016 319.047 569.835 323.687 567.952C324.799 568.787 325.544 569.79 325.849 570.861C327.175 571.834 325.434 574.084 329.479 573.915C333.301 574.858 330.495 578.569 335.53 579.014C335.742 580.193 337.724 580.64 337.719 581.91C337.257 583.122 336.798 584.322 338.476 584.645C341.859 585.303 341.993 591.235 346.207 589.03C348.086 589.508 346.802 591.33 346.675 592.638L348.14 592.796C357.011 597.155 365.514 605.064 363.886 611.371C368.018 613.458 370.213 616.339 373.806 618.662C372.161 618.703 372.335 620.259 370.431 620.071C371.052 615.705 365.722 619.779 366.825 622.341C366.025 623.691 367.797 623.969 367.58 625.082C366.372 624.788 366.109 625.272 365.876 625.797C364.789 625.075 363.346 624.602 361.78 624.455C363.757 622.082 363.793 621.953 363.199 619.289C360.784 618.838 359.039 620.352 358.858 618.82C362.518 617.138 367.628 614.257 358.343 615.206L356.925 615.052C355.942 612.678 363.969 612.703 359.525 610.901L360.234 608.32C359.329 607.2 359.161 605.901 359.767 604.704C356.358 603.976 356.163 605.943 352.27 604.782L347.933 604.314C350.116 600.119 346.686 599.165 342.887 601.109C343.841 598.411 344.358 595.907 341.627 594.753C339.217 594.758 339.369 593.668 337.526 593.422C337.107 591.823 340.668 588.548 337.527 588.094C336.886 586.832 334.859 586.158 332.202 585.747C332.709 584.77 332.296 584.186 331.212 583.862C329.995 581.336 325.631 580.105 327.328 576.343C320.939 576.752 326.059 580.736 327.108 582.537C323.393 582.218 320.09 582.284 317.957 583.32C317.875 585.187 322.179 582.496 323.523 584.809C323.035 585.481 321.823 585.507 321.585 586.371C317.836 587.521 323.115 591.284 325.964 592.173C326.717 593.002 326.975 593.973 326.692 594.911C327.13 595.758 327.542 596.605 329.116 596.96C329.216 597.932 331.836 597.851 331.521 598.995C330.913 601.284 334.963 601.631 336.376 603.064C337.296 605.955 333.519 604.924 332.544 606.209C334.649 607.948 336.358 606.479 340.985 608.009C339.348 611.233 345.231 611.306 341.969 615.221C349.859 614.621 345.234 609.599 342.637 607.299C343.544 607.486 344.529 607.463 345.412 607.233C346.294 607.003 347.016 606.583 347.446 606.048C350.575 607.025 346.539 611.004 352.065 610.978L351.828 611.84C352.581 612.671 352.849 613.64 352.584 614.581C348.846 614.283 349.362 617.543 347.062 618.43C346.943 620.275 351.243 617.589 352.582 619.912C352.657 622.442 355.809 623.645 358.651 625.016C361.287 625.431 358.73 628.018 360.587 628.772C364.243 626.243 362.926 628.836 367.82 629.554L367.584 630.411C361.797 630.063 367.914 633.197 363.741 633.544C361.636 631.515 358.468 632.725 361.808 629.787C354.337 630.651 361.29 633.872 361.593 635.983L360.15 635.827C357.56 635.865 355.047 635.277 353.13 634.184C353.338 633.335 351.561 633.318 350.489 632.995C351.051 632.523 354.989 630.071 351.434 629.555L351.906 627.835C346.915 626.609 346.1 623.66 343.195 621.557C341.875 620.584 343.629 618.336 339.567 618.505C339.444 617.912 338.988 617.365 338.279 616.963C337.57 616.562 336.657 616.333 335.702 616.317C336.228 615.341 335.813 614.741 334.755 614.441C332.792 613.473 333.416 611.432 333.024 609.808L327.246 609.183C326.749 610.129 321.584 614.716 328.723 614.673C327.926 616.015 329.691 616.305 329.479 617.414C330.019 618.107 330.32 618.864 330.36 619.635C330.401 620.407 330.18 621.174 329.713 621.888C332.222 624.093 334.613 621.632 336.733 623.533C336.237 624.235 337.053 624.395 337.915 624.545C338.035 625.519 340.634 625.437 340.361 626.586C338.74 626.771 334.355 629.38 339.653 629.164L339.416 630.026C339.143 630.867 337.439 630.511 336.259 630.574C336.024 632.204 336.426 633.567 338.23 634.346C339.2 635.271 340.532 636.024 342.098 636.535L343.486 636.685C342.094 639.574 338.506 642.614 346.168 643.193C345.716 643.9 346.531 644.062 347.387 644.213C344.415 646.361 352.993 647.271 352.951 645.702C356.582 646.792 348.585 649.397 354.651 650.317C350.141 650.92 351.882 653.358 356.601 654.087C355.768 655.153 353.664 655.164 352.993 656.356C349.32 658.46 354.6 661.907 356.894 663.886C359.785 663.524 358.597 661.425 361.47 663.491C362.592 663.77 362.647 664.507 364.109 664.665C366.559 666.726 363.018 666.286 361.728 667.95C363.194 671.157 368.558 672.712 369.944 675.946C373.315 676.657 370.233 671.935 374.997 673.832L374.288 676.415C370.759 676.732 373.921 680.546 375.997 681.046C377.121 682.342 376.471 684.396 379.393 684.954C382.441 686.597 381.58 687.07 386.392 686.601C385.906 687.272 384.69 687.305 384.455 688.161C386.598 690.064 387.276 692.582 390.267 694.125C392.232 695.337 393.157 696.98 395.102 698.19L398.005 698.504C395.321 702.096 403.121 706.064 406.971 709.254C407.387 710.083 407.8 710.927 409.374 711.286C417.112 717.354 417.718 724.465 423.693 729.691L424.167 727.965C426.056 729.068 428.559 729.663 431.139 729.623C431.052 731.122 428.067 731.588 430.429 732.207C431.704 733.203 432.903 734.23 434.058 735.253C435.081 738.24 429.201 735.415 430.236 738.387L433.109 738.698C434.993 739.964 434.467 742.203 436.26 743.487C434.33 745.673 433.593 741.162 430.977 741.145C427.647 741.376 432.903 744.296 434.373 745.054C435.719 747.029 435.463 749.677 440.401 750.154C439.951 750.841 440.746 751.019 441.629 751.175C443.407 753.469 445.757 755.528 447.19 757.994C446.005 757.689 445.723 758.168 445.515 758.685C441.073 756.487 436.531 754.323 435.832 750.548C433.728 749.141 433.655 746.88 427.871 747.012C426.055 746.509 426.007 745.256 424.006 744.823C424.395 748.482 434.294 754.738 439.499 758.935C439.559 759.656 440.699 759.953 440.463 760.811C446.235 766.549 452.7 772 459.803 777.116C460.729 777.426 461.533 777.86 462.16 778.387C462.787 778.915 463.22 779.523 463.43 780.167C469.754 784.585 475.425 789.355 480.373 794.417L481.813 794.573C487.2 802.287 503.627 809.272 504.084 816.515C500.649 817.93 501.351 815.826 498.523 815.03C495.784 813.746 495.734 813.767 496.849 815.733C497.068 816.377 497.506 816.983 498.131 817.512C498.756 818.041 499.554 818.48 500.472 818.8C496.411 820.455 493.551 815.133 491.541 813.386L491.543 813.385ZM486.541 777.334C488.487 776.194 483.597 779.151 486.82 781.811C481.249 779.812 478.263 776.746 475.696 773.502C480.061 771.753 481.78 775.42 481.964 777.726C484.238 778.216 484.695 777.175 486.538 777.332L486.541 777.334ZM484.88 783.37C485.144 781.47 490.118 783.531 492.351 783.296C490.42 788.692 504.525 789.651 499.866 793.867C495.14 791.845 492.363 786.315 484.88 783.37ZM485.411 792.305C481.841 788.97 475.303 786.884 474.759 782.276C477.804 785.833 485.084 787.608 485.411 792.305ZM560.07 786.164C568.132 786.595 571.601 795.557 578.92 798.85C569.31 799.059 565.789 790.134 560.07 786.164ZM583.513 803.792C587.917 807.538 591.449 811.651 596.822 814.991C591.984 814.85 580.685 807.206 583.513 803.792ZM395.641 658.311C394.646 659.496 394.393 658.09 392.743 657.998C394.235 655.846 393.011 654.826 389.113 654.946C389.102 653.506 390.903 653.598 391.291 652.51C390.393 650.837 386.345 650.504 386.435 648.438C381.319 646.272 383.708 640.936 375.311 640.128C375.52 638.89 375.751 637.665 377.485 637.704C380.067 637.652 382.577 638.243 384.468 639.346C382.416 643.513 391.999 642.803 388.127 647.731C389.298 648.02 389.583 647.539 389.808 647.028C392.923 647.493 392.317 649.536 391.524 651.646C393.416 651.113 395.552 651.028 397.536 651.408C398.958 656.155 404.877 659 407.714 663.163L406.765 666.617C406.302 667.276 405.087 667.319 404.85 668.184C404.581 669.01 402.897 668.654 401.714 668.734C401.64 667.99 400.512 667.715 400.75 666.85C401.177 663.105 395.218 662.055 395.645 658.31L395.641 658.311ZM611.854 884.992C608.873 886.467 613.687 889.298 616.23 890.793C609.072 891.226 603.746 884.332 599.553 881.002C600.166 878.159 604.513 885.676 611.854 884.991L611.854 884.992ZM868.008 895.79C867.526 899.271 866.322 902.165 862.98 903.243C860.317 902.051 857.196 901.074 856.694 899C858.436 896.245 861.689 894.733 868.008 895.79ZM830.68 901.524C830.51 894.082 842.726 892.143 851.599 895.796C849.208 901.539 838.294 900.153 830.68 901.524ZM564.729 855.922C566.776 856.535 563.865 856.962 564.021 858.501C564.216 859.352 567.723 859.731 568.361 858.97C570.318 859.504 568.066 860.508 566.443 860.55C566.705 863.75 573.537 860.449 571.038 865.483C576.796 867.584 590.905 877.216 594.733 882.253C598.218 882.38 601.263 885.533 603.67 887.649C589.902 884.523 579.251 873.488 571.038 865.483C556.415 854.659 549.338 847.227 536.929 837.832C548.333 838.131 554.998 852.966 564.729 855.921L564.729 855.922ZM642.825 859.022C637.269 856.26 635.349 851.98 630.708 848.834C630.858 847.979 643.452 854.511 642.825 859.022ZM557.201 840.022C552.107 841.841 550.668 835.657 546.811 834.452C552.761 832.251 551.19 839.707 557.201 840.022ZM533.577 839.241C536.528 843.344 542.495 846.18 545.445 850.29C546.572 850.569 546.626 851.306 548.091 851.464C554.402 855.888 560.069 860.657 565.026 865.714L564.788 866.578C573.117 871.998 578.465 878.647 586.801 884.054C590.878 881.791 587.743 888.045 593.797 885.698C597.986 886.732 591.916 887.398 592.852 889.14C593.805 888.668 594.968 888.391 596.181 888.349C597.394 888.307 598.599 888.502 599.629 888.906C600.659 889.311 601.464 889.905 601.935 890.608C602.405 891.31 602.518 892.087 602.256 892.832C603.95 892.84 603.311 892.042 602.494 891.967C607.456 890.934 615.73 895.027 617.224 897.991C616.099 897.71 616.019 896.978 614.58 896.823C610.706 900.311 608.024 897.246 603.5 899.169C599.955 898.653 603.882 896.218 604.446 895.728C599.27 897.129 600.84 895.639 598.41 895.959C594.361 894.756 602.141 895.039 600.819 892.676C595.034 896.392 591.864 889.165 587.294 887.665C579.095 881.683 570.269 875.991 564.086 869.173C555.78 865.795 553.426 859.899 546.918 855.769C542.222 852.703 538.151 849.282 534.799 845.586C534.383 844.753 533.97 843.912 532.392 843.556C529.193 842.611 529.299 840.272 526.125 839.331C526.983 841.761 531.041 842.856 531.92 845.276C534.868 849.387 540.834 852.231 543.789 856.322C547.055 859.524 550.073 862.844 554.676 865.493C549.135 866.273 545.534 859.683 542.092 857.043C534.972 852.392 529.911 846.89 523.954 841.757C520.071 837.298 500.076 823.384 506.528 823.889C512.83 828.319 518.49 833.093 523.441 838.154C524.648 838.45 524.911 837.964 525.145 837.438C520.449 834.379 516.381 830.962 513.037 827.269C512.954 824.917 505.861 823.5 510.125 821.618C514.783 821.701 513.324 824.351 516.671 824.984C522.973 829.415 528.632 834.189 533.583 839.25L533.577 839.241ZM541.24 827.639C544.853 830.664 547.609 829.941 547.53 831.866C544.791 833.708 540.666 829.73 541.24 827.639ZM624.41 839.302C617.961 841.206 617.652 834.008 612.823 832.713C620.217 830.404 618.289 838.523 624.41 839.302ZM539.78 827.481C534.107 823.733 525.812 819.379 521.876 811.35C528.621 818.053 535.967 819.79 539.78 827.481ZM513.24 815.736C522.884 819.063 523.148 826.325 533.311 829.461C516.203 825.592 510.658 810.593 500.898 806.412C505.287 807.163 502.752 803.416 499.46 806.257C499.817 800.105 516.192 813.281 513.241 815.735L513.24 815.736ZM965.359 850.383C963.182 851.354 958.202 850.816 956.686 849.446C957.575 845.185 966.186 846.434 965.359 850.383ZM859.959 773.288C863.207 776.399 859.305 779.816 861.222 784.962C865.746 797.106 884.714 793.176 895.486 801.102C895.52 803.242 892.345 802.697 892.884 805.252C896.439 805.768 899.847 806.178 900.576 804.311C907.608 810.766 917.236 816.137 920.429 824.215C924.672 825.239 933.18 824.46 934.643 826.638C938.168 828.944 941.478 831.376 944.554 833.923C940.19 837.691 932.302 840.445 934.983 847.096C928.282 848.192 924.434 851.667 918.38 853.298C909.812 849.623 911.738 851.202 901.026 851.423C896.624 847.677 891.64 844.16 889.395 839.502C894.46 841.862 898.871 839.563 904.345 839.337C908.918 829.564 902.481 823.141 894.111 816.934C888.434 816.03 883.451 815.726 880.628 817.249C864.204 807.368 852.24 795.584 837.353 785.055C833.621 781.014 829.161 777.256 824.062 773.853C824.096 767.939 839.652 759.159 823.241 755.101C817.831 753.781 815.603 755.548 806.872 755.12C801.588 754.272 802.458 750.868 799.598 749.003C802.189 744.81 808.583 743.814 814.765 742.653C824.314 751.135 849.566 763.322 859.953 773.28L859.959 773.288ZM796.386 728.238C794.438 731.195 791.53 733.349 786.056 733.323C781.065 726.003 767.412 722.331 771.227 711.312C783.387 715.368 787.629 722.744 796.386 728.238ZM1204.1 750.974C1223.7 750.213 1200.52 739.015 1204.1 750.974V750.974ZM1204.78 737.737C1205.77 734.355 1212.6 740.121 1210.81 742.82C1204.97 742.737 1204.93 740.206 1204.78 737.737ZM1223.1 741.487C1220.91 742.746 1217.68 745.432 1215.15 743.288C1216.17 740.067 1209.65 740.017 1212.71 735.932C1219.54 736.365 1220.58 739.236 1223.1 741.487ZM1071.11 595.448C1064.47 596.576 1071.5 600.053 1075.49 601.24C1075.9 602.069 1076.32 602.912 1077.89 603.273C1078.55 603.694 1078.87 607.694 1080.32 605.306C1082.95 605.738 1080.41 608.325 1082.27 609.076C1081.79 609.738 1080.57 609.781 1080.33 610.641C1081.9 612.623 1085.55 610.334 1088.78 612.438C1085.6 609.436 1088.16 607.506 1084.64 605.773C1084.14 602.741 1081.45 605.328 1079.35 603.431C1079.06 602.859 1076.66 599.724 1080.3 599.985C1093.23 602.635 1098.87 611.018 1109.99 616.508L1109.04 619.963C1106.18 621.469 1104.07 629.145 1105.97 631.17C1105.52 632.876 1109.62 632.695 1107.92 634.923C1103.45 633.915 1102.99 636.06 1100.68 634.141C1101.66 635.389 1102.22 636.746 1102.36 638.133C1102.49 639.519 1102.18 640.909 1101.45 642.22L1100.97 643.956C1099.51 645.918 1101.07 650.402 1097.64 650.688C1096.88 649.859 1096.61 648.888 1096.88 647.947C1095.26 647.982 1095.45 649.563 1093.54 649.356C1093.84 644.393 1086.88 642.491 1082.88 639.326C1081.25 637.478 1080.68 635.15 1075.15 634.944C1075.25 633.388 1077.8 630.788 1073.2 631.173C1073.67 630.488 1072.86 630.312 1072 630.161C1071.26 628.176 1066.02 628.085 1064.01 626.638C1067.28 624.038 1064.18 622.807 1061.1 620.987C1059.61 618.415 1056.58 616.49 1051.69 617.311C1047.7 613.088 1045.83 608.645 1041.05 607.282C1036.95 607.479 1043.2 603.332 1039.11 603.528C1039.6 602.55 1039.2 601.953 1038.13 601.651C1034.06 601.211 1040.92 604.365 1034.76 603.058C1034.96 602.224 1033.16 602.19 1032.09 601.883C1033.15 601.405 1033.87 600.684 1034.09 599.876C1034.31 599.068 1034.02 598.238 1033.28 597.564C1031.03 598.458 1029.68 599.877 1028.94 597.096C1030.97 594.469 1027.47 594.16 1025.54 593.184C1023.73 592.666 1023.71 591.417 1021.68 590.98L1020.25 590.825C1020.23 589.396 1022.01 589.488 1022.39 588.397C1023.16 586.559 1017.37 587.463 1015.42 586.756C1012.86 585.724 1017.1 586.411 1017.33 585.189C1010.79 583.103 1004.48 580.909 1001.63 577.277C1002.06 574.8 1007 576.127 1005.95 572.422C1002.4 570.981 1001.07 576.168 1001.61 571.954C998.535 571.13 999.1 573.37 996.803 573.207C995.508 573.23 995.519 572.72 995.575 572.189C997.606 569.559 994.1 569.255 992.186 568.266C991.818 565.841 995.646 566.92 997.233 566.152C997.336 564.825 990.676 560.848 990.25 564.509C988.711 562.614 989.457 559.744 985.879 558.702C981.379 558.814 986.745 560.699 984.929 562.162C982.222 561.999 983.249 564.991 981.101 565.293C976.742 562.792 982.378 556.103 976.706 554.168C975.547 555.882 974.099 557.512 972.385 559.032C972.025 555.439 970.446 551.935 967.754 548.756C970.463 548.207 971.692 546.389 973.3 544.922C969.404 543.765 969.209 545.729 965.802 545C963.229 545.042 960.73 544.455 958.835 543.361C958.882 543.083 958.895 542.804 958.873 542.525C958.87 542.492 958.856 542.464 958.853 542.431C958.828 542.208 958.777 541.987 958.7 541.769C958.729 538.612 961.158 539.812 963.632 536.776C958.871 535.967 955.921 534.419 954.463 532.241C953.685 531.41 953.418 530.43 953.711 529.484C956.875 528.138 954.467 527.344 954.894 525.179C958.514 525.422 958.986 527.019 961.637 527.681C958.451 531.302 959.969 533.517 963.866 535.911C964.629 536.737 964.888 537.709 964.597 538.646C967.459 538.595 970.895 539.011 971.08 536.69C972.354 536.663 972.343 537.177 972.284 537.705C972.068 539.277 970.036 539.337 969.897 540.995C971.402 541.9 973.378 542.432 975.46 542.494L976.897 542.649C978.619 543.956 976.364 546.938 980.052 547.423L979.342 550.005C980.958 549.613 981.388 548.19 984.152 548.753C984.25 549.736 986.869 549.655 986.578 550.787C985.401 552.811 988.71 552.952 986.834 555.261C988.247 554.815 989.856 554.677 991.409 554.867C991.04 552.982 994.753 549.401 991.602 548.671C998.798 548.922 993.323 555.83 994.799 558.781C997.319 557.359 1000.15 556.173 1003.21 555.26C1006.6 556.625 1006.36 559.533 1005.66 562.626C1001.06 562.259 1003.8 558.824 1001.07 557.687C995.895 560.887 1003.83 565.145 1007.37 567.246C1007.63 568.663 1011.73 568.473 1009.31 570.998C1012.71 571.733 1012.89 569.773 1016.78 570.922C1015.36 568.209 1010.31 567.025 1008.08 564.662C1007.96 562.788 1009.69 562.484 1010.47 561.357C1013.86 562.322 1012.86 567.142 1018.44 564.892C1017.29 567.662 1019.01 569.227 1023.03 569.821L1023.27 568.964C1031.21 576.168 1048.78 582.803 1059.27 589.72C1062.89 592.108 1063.09 597.092 1071.11 595.447L1071.11 595.448ZM931.388 545.722C928.983 545.71 929.105 544.635 927.286 544.381C926.096 541.84 922.429 540.323 920.029 538.276C919.485 534.933 914.856 533.317 913.248 530.442C914.976 529.073 918.727 529.405 921.168 528.638C922.822 528.959 923.817 528.714 924.307 528.089C928.386 531.464 934.236 534.09 936.395 538.273C939.612 539.218 937.45 542.411 941.009 543.205C942.433 544.515 941.2 544.62 940.3 545.787C944.22 546.299 943.609 544.679 946.078 546.412L948.976 546.725C952.105 552.539 959.216 556.681 965.891 560.988L963.995 567.888C968.284 569.009 966.603 565.106 971.731 566.937C976.41 570.071 972.44 570.621 972.951 573.288C978.215 574.537 975.207 568.826 981.133 570.627C979.135 573.756 981.776 574.939 980.678 577.686C981.458 580.151 983.162 582.237 988.173 582.926C991.856 584.673 997.257 586.277 999.524 590.371C1001.28 590.412 1001.19 588.924 1001.7 587.947C1007.43 589.28 999.978 591.41 1003.16 593.424C1004.8 593.019 1005.2 591.608 1007.97 592.169C1008.41 593.006 1008.82 593.846 1010.4 594.205L1010.16 595.065C1007.76 595.053 1007.91 593.98 1006.06 593.737C1003.57 595.69 1011.03 597.051 1006.56 597.335C999.231 596.936 1006.63 599.262 1007.31 600.091C1008.06 600.921 1008.32 601.891 1008.04 602.829C1010.59 603.222 1011.37 602.102 1014.05 602.593C1015.07 605.58 1009.2 602.75 1010.23 605.728C1009.13 605.016 1007.69 604.549 1006.12 604.396C1006.01 603.426 1003.41 603.503 1003.7 602.361C1001 602.562 997.573 602.15 995.987 603.301L994.533 603.144C993.469 602.315 994.327 600.692 992.341 600.247L988.005 599.779C988.051 598.752 988.761 598.278 989.943 598.215C988.972 597.291 987.642 596.538 986.078 596.026C985.568 593.106 990.323 594.639 991.366 593.034C991.553 592.199 989.758 592.177 988.703 591.861C988.475 589.177 985.37 592.342 982.924 591.237C981.739 590.714 980.549 590.194 980.476 589.198C983.139 585.303 979.347 584.095 976.38 582.537C972.97 582.443 975.434 579.881 972.752 579.486C973.831 577.747 972.379 577.091 972.237 575.871C969.048 576.297 969.063 581.719 970.341 582.773C970.44 583.509 971.569 583.792 971.329 584.667C969.931 584.907 968.537 585.138 967.958 586.075C965.979 586.166 965.265 587.336 963.149 587.326C961.875 587.352 961.886 586.839 961.945 586.312C963.321 586.069 964.739 585.828 965.297 584.887C962.637 584.483 960.612 583.8 959.971 582.54C962.389 582.029 959.947 581.212 962.382 579.253C956.746 579.59 958.21 576.931 955.872 575.89L956.108 575.032C957.278 575.317 957.538 574.839 957.769 574.308C959 574.283 959.47 573.609 960.904 573.763L960.427 575.499C966.913 575.735 961.702 569.296 957.769 568.989C956.381 567.026 951.173 566.665 953.392 563.186L947.6 562.56C948.058 561.361 948.522 560.137 946.89 559.824C942.111 554.702 932.933 549.961 931.394 545.723L931.388 545.722ZM888.215 498.805C890.979 501.533 893.505 504.353 895.781 507.253C893.508 504.354 890.984 501.535 888.222 498.808L888.215 498.805ZM885.73 501.981C885.905 501.833 886.09 501.696 886.277 501.563C886.09 501.696 885.904 501.838 885.73 501.981ZM886.435 501.455C886.562 501.363 886.689 501.284 886.814 501.203C886.689 501.283 886.56 501.368 886.435 501.455ZM951.383 536.49C951.755 536.741 952.152 536.986 952.569 537.22C952.154 536.985 951.755 536.743 951.383 536.49ZM952.82 537.361C953.215 537.576 953.617 537.789 954.022 538C953.617 537.789 953.215 537.577 952.82 537.361ZM956.827 539.617C956.885 539.657 956.939 539.699 956.995 539.74C956.937 539.699 956.885 539.657 956.827 539.617ZM827.959 451.449C827.956 451.414 827.944 451.38 827.946 451.342C827.945 451.377 827.959 451.411 827.959 451.449ZM828.768 449.441C828.807 449.402 828.854 449.368 828.897 449.33C828.855 449.368 828.807 449.404 828.768 449.441ZM821.126 451.083C821.076 451.059 821.03 451.031 820.979 451.007C821.023 451.031 821.07 451.057 821.126 451.083ZM1209.06 727.542C1201.54 726.613 1200.91 722.812 1199.38 719.395C1207.12 719.967 1213.37 724.365 1209.06 727.542ZM1226.63 723.222C1222.37 722.212 1219.75 720.507 1220.82 717.264C1222.8 717.171 1223.51 716 1225.63 716.007C1232.6 716.484 1231.16 722.042 1226.63 723.223L1226.63 723.222ZM1192.34 707.096C1188.68 706.586 1187.07 705.232 1187.49 703.009C1191.15 703.521 1192.76 704.875 1192.34 707.096ZM1212.95 686.231C1204.38 684.74 1202.71 680.361 1202.54 675.345C1209.16 677.657 1211.42 681.783 1212.95 686.231ZM1063.94 556.487C1063.88 558.298 1067.4 558.602 1067.33 560.41C1071.08 564.443 1075.54 568.2 1080.62 571.611C1083.84 572.557 1083.71 574.898 1086.93 575.843C1090.27 579.54 1094.33 582.961 1099.02 586.025C1121.37 604.876 1144.86 623.248 1166.97 642.207L1168.41 642.363C1175.14 647.123 1181.2 652.232 1186.55 657.633C1191.59 663.914 1200.71 668.489 1200.63 676.913C1182.96 666.265 1172.96 652.398 1158.54 640.394C1154.79 636.36 1150.32 632.603 1145.23 629.194C1140.91 627.198 1139.66 623.912 1135.31 621.916C1131.99 618.214 1127.92 614.792 1123.23 611.731C1114.55 604.94 1106.52 597.88 1097.6 591.203L1097.83 590.345C1094.5 586.645 1090.44 583.22 1085.76 580.149C1084.46 580.181 1084.47 579.675 1084.53 579.126C1079.97 574.408 1074.7 569.975 1068.8 565.888C1065.24 564.591 1064.87 561.948 1061.3 560.646C1061.36 558.84 1057.86 558.53 1057.91 556.723C1050.93 549.965 1043.26 543.5 1034.94 537.368C1001.93 508.244 965.703 480.456 938.634 448.833C983.481 483.434 1019.99 521.511 1063.95 556.488L1063.94 556.487ZM708.487 332.525C726.111 347.821 741.585 364.048 754.733 381.024C746.19 382.104 745.241 373.98 741.19 370.681C723.94 360.373 717.278 345.621 703.67 333.775C698.335 327.877 692.07 322.381 686.008 316.778C685.082 313.894 688.863 314.926 689.852 313.637L691.291 313.792C697.465 319.853 703.786 325.851 708.479 332.523" fill="white"/>
</svg>
